<svg width="72" height="224" viewBox="0 0 72 224" fill="none" xmlns="http://www.w3.org/2000/svg">
<path d="M50.2577 0.896248C50.016 1.44811 50.7409 4.06948 51.8685 6.69084C56.2983 17.3832 57.748 33.6633 55.1707 45.2525C52.9961 55.1171 46.3112 70.2244 41.9619 75.0532L40.5122 76.7088L35.6797 74.1565C26.337 69.2586 15.7055 67.0512 9.90656 68.9827C4.34922 70.7763 0 76.5019 0 82.0205C0 88.8499 5.31571 94.2306 15.0612 97.1969C22.9542 99.6803 29.8002 99.5423 36.0019 96.783C38.5792 95.6792 40.6733 94.3686 40.6733 93.9547C40.6733 93.5408 40.9954 92.9199 41.3981 92.575C41.8008 92.2301 41.8814 92.437 41.4787 92.9889C40.9954 93.6787 41.3176 93.8167 42.5257 93.4718C43.9755 93.0579 44.3782 93.5408 45.8279 97.3348C51.4658 111.821 51.3852 125.48 45.5057 144.933C43.3311 152.108 39.3041 162.041 36.0019 168.25C33.8273 172.458 34.23 172.803 32.1359 164.869C31.5721 162.731 30.2835 160.317 29.0753 159.144C26.8202 156.936 21.1018 155.35 20.4574 156.729C20.2964 157.212 19.9742 166.249 19.8131 176.873C19.652 188.117 18.9272 200.12 18.2023 205.501C16.672 217.09 16.5915 221.367 17.9607 221.367C18.5245 221.367 19.5715 221.988 20.3769 222.746C21.4239 223.85 22.6321 224.057 26.5786 223.988C29.2364 223.919 31.6527 223.712 32.0554 223.505C32.4581 223.298 34.5521 220.746 36.8073 217.849C41.6398 211.709 50.4993 201.982 60.0031 192.256C67.0908 185.013 72.7286 176.39 71.9232 173.906C71.5205 172.458 68.5405 171.009 66.0437 171.009C65.2383 171.009 64.4329 170.664 64.2718 170.25C64.1107 169.836 61.8556 170.733 59.1977 172.251C56.5399 173.768 54.2847 174.941 54.1236 174.803C53.9626 174.665 54.9291 172.113 56.2177 169.146C60.6475 159.351 66.2048 139.139 66.0437 133.344C65.9632 132.24 65.9632 128.584 65.9632 125.273C66.0437 118.168 65.7216 116.305 63.1442 107.682C60.9696 100.232 58.3923 95.1274 53.882 89.1948C52.1907 86.9184 50.7409 84.8489 50.7409 84.6419C50.7409 83.9521 57.0231 75.95 57.9091 75.4671C59.681 74.5704 64.2718 64.7058 64.9162 60.4978C64.9967 59.463 65.7216 57.1866 66.4464 55.393C71.1984 43.3209 68.46 20.7634 60.6475 8.00152C56.862 1.86201 51.4658 -1.7941 50.2577 0.896248ZM8.05411 74.0875C7.49033 74.7083 6.846 74.9843 6.68491 74.8463C6.12113 74.3634 7.2487 73.0527 8.2152 73.0527C8.69844 73.0527 8.69844 73.4666 8.05411 74.0875ZM49.0496 79.1922C46.5528 82.0895 46.0695 81.3307 48.4052 78.1575C49.3717 76.7088 50.4187 75.95 50.5798 76.3639C50.7409 76.7778 50.016 78.0885 49.0496 79.1922ZM53.9626 77.7436C53.9626 78.4334 52.9155 80.02 51.6269 81.3307C49.6133 83.3312 49.2912 83.4692 49.6939 82.1585C49.9355 81.3307 50.4187 80.6409 50.8215 80.6409C51.2242 80.6409 51.5463 80.089 51.5463 79.3992C51.5463 78.3644 52.9155 76.5019 53.7209 76.5019C53.882 76.5019 53.9626 77.0538 53.9626 77.7436ZM28.5921 79.2612C30.364 79.9511 32.4581 81.0548 33.344 81.6066C34.7938 82.5724 34.7132 82.7104 32.5386 84.435C28.6726 87.4702 22.6321 89.6087 17.9607 89.6087C12.645 89.6087 11.5174 88.298 13.0477 83.8831C13.6115 82.2965 14.0142 80.5719 14.0947 80.02C14.0947 79.4682 14.739 78.9853 15.5444 78.8473C16.4304 78.7783 17.2358 78.5024 17.558 78.2955C18.5245 77.3987 25.6121 78.0195 28.5921 79.2612ZM35.0354 87.2633C31.5721 89.6087 30.4445 89.2638 33.7467 86.8494C35.277 85.7456 36.7268 84.9868 36.9684 85.1938C37.21 85.4007 36.4046 86.3665 35.0354 87.2633ZM54.0431 181.149C51.3047 184.392 48.2441 187.289 48.4858 186.392C48.8079 185.151 54.2042 179.356 55.0096 179.287C55.4123 179.287 54.9291 180.115 54.0431 181.149ZM66.3659 183.426C65.1578 185.357 63.708 187.22 63.1442 187.634C62.4999 188.048 63.3859 186.461 64.9967 184.185C68.46 179.08 69.4265 178.597 66.3659 183.426Z" fill="black"/>
</svg>
