<svg width="57" height="43" viewBox="0 0 57 43" fill="none" xmlns="http://www.w3.org/2000/svg">
<path d="M0.0199901 1.30266C-0.139303 1.8661 0.627415 5.35243 3.29505 16.4479C4.11369 19.9043 4.92048 21.4815 5.9085 21.634C6.75185 21.7758 8.05114 21.0885 7.96192 20.5742C7.50723 18.2279 5.5849 6.32492 5.66404 6.34209C5.71722 6.37425 6.79849 7.88735 8.10988 9.73907C11.5999 14.7648 16.6139 21.111 18.7711 23.2287C22.8432 27.1641 27.5083 29.9085 31.7671 30.75L33.4946 31.1042L33.6758 32.9169C34.0332 36.2938 35.7678 38.9384 38.8783 40.7887C40.8064 41.97 44.4853 42.7063 46.8036 42.4051C50.0913 41.9843 53.4117 39.9415 55.5324 37.0198C56.9376 35.0769 57.0326 34.582 55.9977 34.7081C55.356 34.7957 54.9419 35.0976 53.8493 36.2628C53.13 37.0553 51.8531 38.2011 50.9853 38.7964C49.7034 39.6937 49.1953 39.8927 47.9502 40.0144C45.251 40.3155 41.6447 38.6257 39.7965 36.2039C38.8649 34.9501 37.824 32.1878 38.1292 31.6973C38.2046 31.5281 39.1578 31.2606 40.257 31.066C44.4311 30.322 48.7938 27.8661 50.8008 25.1672C52.0268 23.4535 52.7912 21.0005 52.2161 20.4839C51.9081 20.1903 51.8672 20.1196 52.1851 20.2504C52.8603 20.5206 52.7673 19.8199 51.8924 18.1248C51.3034 16.9247 50.9274 16.5132 49.985 16.02C47.8615 14.9201 44.6108 15.2252 41.9369 16.769C39.1851 18.3578 36.2127 22.0227 34.8267 25.5575C34.4907 26.4744 34.1126 27.2584 34.0347 27.3034C33.9569 27.3483 32.9515 26.9859 31.7852 26.4648C27.7969 24.7127 23.6273 21.148 19.1974 15.7533C16.8939 12.9028 12.3327 6.861 11.761 5.8709C11.5296 5.47014 12.3322 5.54115 15.5621 6.15946C20.1115 7.08466 20.8213 7.11492 22.1639 6.62263C23.4151 6.15173 23.3097 5.48963 21.8665 4.90843C21.2445 4.67036 18.1282 3.82927 14.934 3.03314C11.7658 2.22203 8.00277 1.21999 6.60165 0.771652C2.90037 -0.423194 0.422509 -0.218446 0.0199901 1.30266ZM45.8199 17.8589C46.6769 18.0242 47.4688 19.5158 47.3765 20.7949C47.1993 23.066 44.6101 26.1954 41.7988 27.4413C40.3931 28.0643 38.5731 28.3293 38.3553 27.9521C38.0831 27.4806 39.4099 24.2629 40.5443 22.5707C41.7814 20.7564 43.7206 18.5995 44.6552 18.0599C44.9531 17.8565 45.4897 17.7667 45.8199 17.8589ZM48.6577 21.1554C48.5206 21.5174 48.481 21.5088 48.4462 21.0889C48.388 20.8082 48.4757 20.6004 48.5944 20.6261C48.7131 20.6519 48.7441 20.8854 48.6577 21.1554Z" fill="black" fill-opacity="0.02"/>
<path d="M48.4459 21.0887L48.4454 21.0879L48.3597 21.0606C48.3776 21.072 48.3969 21.0831 48.4185 21.0921L48.4459 21.0887ZM48.4459 21.0887L48.4252 21.0939C48.4324 21.0968 48.4399 21.0988 48.4475 21.1013C48.4471 21.0972 48.4462 21.0929 48.4459 21.0887ZM48.8081 21.0149C48.7789 20.9928 48.7435 20.9722 48.7012 20.9548C48.6981 20.9822 48.6931 21.0105 48.687 21.0397M48.8081 21.0149L48.687 21.0397M48.8081 21.0149C48.8163 21.0211 48.8226 21.0288 48.8298 21.035C48.8178 21.0448 48.8039 21.0528 48.7899 21.0615M48.8081 21.0149L48.687 21.0397M48.687 21.0397C48.685 21.0497 48.6834 21.06 48.681 21.0702M48.681 21.0702L48.7899 21.0615M48.681 21.0702L48.7899 21.0615M48.681 21.0702C48.6777 21.0841 48.673 21.0979 48.6691 21.1121C48.7141 21.1014 48.7546 21.0834 48.7899 21.0615M46.7397 41.9089C49.8784 41.5072 53.08 39.5463 55.1273 36.7258L55.1278 36.7266C55.4763 36.2448 55.7355 35.8632 55.9147 35.5642C56.0054 35.4128 56.0683 35.2929 56.1116 35.2001C56.096 35.2017 56.0796 35.2028 56.0624 35.2048C55.6195 35.2659 55.3144 35.4318 54.2189 36.5996L54.2197 36.5991C53.4793 37.4148 52.1756 38.5859 51.2712 39.207L51.272 39.2065C50.6254 39.659 50.1386 39.9606 49.6396 40.1602C49.1346 40.3622 48.6441 40.449 48.0056 40.5116C46.5389 40.6752 44.8687 40.297 43.3423 39.5831C41.8127 38.8677 40.3802 37.7927 39.399 36.5069L39.3952 36.5023C38.8905 35.8231 38.3772 34.7707 38.0299 33.8389C37.8553 33.3702 37.7156 32.9123 37.6394 32.5296C37.6015 32.3393 37.5767 32.1527 37.5752 31.9848C37.5739 31.8358 37.5888 31.6191 37.7044 31.4332L37.7067 31.4353C37.7772 31.3171 37.8727 31.2458 37.918 31.2152C37.9873 31.1685 38.064 31.1291 38.1362 31.0971C38.2825 31.0323 38.4674 30.97 38.6693 30.9111C38.9748 30.822 39.3501 30.7327 39.7554 30.6517L40.1694 30.5739C44.2463 29.8471 48.4787 27.4471 50.3949 24.8766L50.3944 24.8757C50.9746 24.0646 51.4486 23.0726 51.7057 22.231C51.8346 21.8088 51.9025 21.4467 51.9107 21.1778C51.9199 20.8723 51.8492 20.827 51.8817 20.8562L51.8766 20.8513L51.871 20.8455C51.7932 20.7713 51.7227 20.7021 51.6686 20.6433C51.642 20.6143 51.6116 20.5795 51.5842 20.542C51.5673 20.519 51.5061 20.4371 51.4791 20.323C51.4642 20.2595 51.4479 20.1355 51.5077 19.9975C51.5741 19.8445 51.6963 19.7603 51.7975 19.722C51.8959 19.6848 51.9882 19.688 52.0473 19.6939C51.9493 19.3971 51.7589 18.9574 51.4481 18.3552L51.4476 18.3543L51.4436 18.3454C51.1549 17.7573 50.9384 17.405 50.7012 17.1434C50.4705 16.8893 50.1974 16.6955 49.7551 16.4639C47.8274 15.4653 44.7621 15.7156 42.1867 17.2026C39.633 18.6771 36.8261 22.0693 35.4234 25.416L35.2923 25.7398C35.1209 26.2068 34.9386 26.6406 34.7876 26.9671C34.7119 27.1309 34.6415 27.2732 34.5823 27.3811C34.5534 27.4339 34.5229 27.486 34.4929 27.5308C34.478 27.553 34.4582 27.5817 34.4346 27.6096C34.4196 27.6274 34.3676 27.6889 34.2847 27.7367C34.1494 27.8148 34.0156 27.8079 33.9963 27.8074C33.949 27.8062 33.9058 27.799 33.8756 27.7936C33.8129 27.7825 33.743 27.7646 33.6749 27.7449C33.5352 27.7043 33.3533 27.6426 33.1452 27.5658C32.7263 27.4112 32.1728 27.1858 31.5814 26.9216C27.4904 25.1237 23.2623 21.491 18.8113 16.0706L18.8085 16.0677C17.6517 14.6362 15.9321 12.4078 14.4309 10.4153C12.9421 8.43925 11.6332 6.64964 11.3279 6.12088C11.2808 6.03918 11.1962 5.86781 11.2327 5.65714C11.2773 5.40064 11.4631 5.26195 11.6052 5.20076C11.7336 5.14559 11.8729 5.12964 11.9861 5.12409C12.1078 5.11813 12.2476 5.12203 12.4023 5.1341C13.0112 5.18166 14.0492 5.36092 15.6563 5.66857L15.6616 5.67C17.9445 6.13427 19.2246 6.36448 20.0987 6.42353C20.9303 6.47965 21.374 6.3808 21.9876 6.15615L21.9879 6.15481C22.2719 6.04793 22.429 5.94737 22.5028 5.87671C22.5063 5.87339 22.509 5.86987 22.5119 5.86698C22.4922 5.84172 22.4565 5.80144 22.3897 5.74918C22.2475 5.63792 22.0176 5.50907 21.6811 5.37344C21.079 5.1455 18.0111 4.31521 14.8127 3.51805L14.8101 3.51734C11.6465 2.7074 7.86831 1.70175 6.44983 1.2479L6.4485 1.24755C4.62591 0.659181 3.15239 0.432842 2.11392 0.51718C1.06565 0.602388 0.623501 0.975649 0.503093 1.43028L0.500948 1.43828L0.500338 1.46457C0.499234 1.49346 0.499179 1.54529 0.504457 1.62795C0.513986 1.77695 0.539119 1.9861 0.583623 2.26898C0.672462 2.83361 0.834207 3.65729 1.08628 4.81929C1.59012 7.14189 2.44752 10.7828 3.78154 16.3314L3.78118 16.3327L3.93305 16.9532C4.2868 18.3467 4.63432 19.361 4.98457 20.0538C5.39657 20.8685 5.74387 21.1024 5.98472 21.1396L5.99139 21.1414C6.26819 21.1879 6.69077 21.096 7.05362 20.907C7.22921 20.8155 7.35644 20.7184 7.42744 20.6404C7.44225 20.6241 7.45119 20.6099 7.45827 20.6C7.22006 19.3526 6.63645 15.8546 6.11929 12.652C5.85542 11.0178 5.60778 9.45608 5.4313 8.30408C5.34314 7.72858 5.27259 7.25327 5.22625 6.92158C5.20319 6.75646 5.18532 6.62306 5.17472 6.52959C5.1696 6.48443 5.16542 6.44007 5.16326 6.40427C5.16238 6.38951 5.16074 6.35851 5.16243 6.3247C5.16298 6.31353 5.16532 6.26453 5.18201 6.20627C5.18885 6.18237 5.2126 6.10159 5.28026 6.02099C5.3679 5.9167 5.54452 5.80455 5.76985 5.85334L5.85145 5.87163L5.92226 5.9142C5.9662 5.94077 5.99705 5.96869 6.00563 5.97657C6.01872 5.98861 6.02894 5.99984 6.03544 6.00672C6.04859 6.02066 6.06082 6.03371 6.06916 6.04364C6.08657 6.0644 6.10641 6.08962 6.12641 6.11545C6.16719 6.16814 6.22193 6.24101 6.28713 6.32938C6.41835 6.50725 6.6004 6.75946 6.82095 7.06649C7.26285 7.68165 7.86182 8.52453 8.51768 9.45063L8.51853 9.45014L8.52048 9.45352C12.0054 14.4718 16.9948 20.7824 19.1187 22.8687C23.1456 26.7605 27.7282 29.4422 31.8644 30.2595L31.8671 30.2602L33.5951 30.6145L33.9557 30.6883L33.9921 31.054L34.1725 32.8646L34.1733 32.8641C34.5131 36.0745 36.1504 38.5837 39.134 40.3585L39.1395 40.3622C40.0354 40.9111 41.3753 41.3755 42.7943 41.6632C44.2114 41.9504 45.652 42.0506 46.7388 41.9094L46.7397 41.9089ZM45.9596 24.8234C44.899 26.0929 43.4888 27.2389 42.0009 27.8983C41.2552 28.2287 40.405 28.4636 39.7042 28.5669C39.3559 28.6182 39.0224 28.6398 38.7464 28.6169C38.6094 28.6056 38.4645 28.5816 38.3318 28.5316C38.2212 28.4899 38.0735 28.4133 37.9655 28.2683L37.9226 28.2018L37.8807 28.1155C37.846 28.0296 37.8311 27.9465 37.8246 27.8817C37.8156 27.7904 37.8187 27.6974 37.8267 27.6099C37.8427 27.4346 37.8836 27.2332 37.9389 27.023C38.0504 26.5997 38.2356 26.0786 38.4597 25.5304C38.9073 24.4356 39.537 23.175 40.1287 22.2923L40.1311 22.2887C40.7641 21.3603 41.5736 20.3499 42.3435 19.5015C43.0984 18.6695 43.8625 17.94 44.405 17.6268L44.4059 17.6285C44.6264 17.4866 44.8944 17.3982 45.1417 17.3559C45.3861 17.3142 45.6646 17.308 45.9138 17.3691L45.9142 17.3678C46.5679 17.4939 47.079 18.0769 47.3962 18.6749C47.727 19.2987 47.9289 20.0844 47.8752 20.8307L47.8749 20.8342C47.7747 22.1172 47.0116 23.5642 45.9596 24.8234ZM48.8958 21.7547C48.8508 21.8004 48.6551 21.9801 48.37 21.8948C48.1343 21.8242 48.049 21.6242 48.0346 21.5912C48.0064 21.5269 47.9921 21.4635 47.9843 21.424C47.9676 21.3399 47.9566 21.2365 47.9478 21.1304C47.9173 20.9437 47.9219 20.7494 47.9824 20.5771C48.0155 20.4831 48.0767 20.3625 48.1909 20.2662C48.3184 20.1586 48.5013 20.0943 48.7007 20.1376C49.0979 20.2239 49.1832 20.6053 49.1997 20.7381C49.2225 20.9234 49.1931 21.1241 49.1341 21.3082L49.1301 21.3207L49.1255 21.3323L49.0703 21.4691C49.0513 21.5136 49.0321 21.5564 49.0117 21.5942C48.9935 21.6279 48.9556 21.6939 48.8958 21.7547ZM48.4437 21.0753C48.4335 21.0223 48.43 20.972 48.4295 20.9256C48.3654 20.9381 48.3133 20.9632 48.2727 20.988C48.2832 21.0002 48.2965 21.0116 48.3103 21.0238L48.4437 21.0753Z" stroke="black" stroke-opacity="0.11"/>
</svg>
