<svg width="155" height="230" viewBox="0 0 155 230" fill="none" xmlns="http://www.w3.org/2000/svg">
<path d="M109.033 6.4572C108.283 9.37659 106.919 14.9036 106.023 18.8453C105.137 22.6787 102.943 30.787 101.149 36.8638C95.2282 56.8353 93.2335 66.3909 95.1733 64.8201C96.3489 63.8681 108.365 23.1801 109.209 17.371C109.703 13.6542 111.986 6.37781 112.194 7.71677C112.423 9.44135 107.366 29.5176 104.078 40.1204C102.322 45.764 99.8633 53.7854 98.5657 57.952C97.2681 62.1187 96.2441 65.6617 96.3915 65.8438C96.8831 66.4508 102.061 65.2731 103.354 64.2259C105.353 62.6076 111.147 48.9701 110.038 48.5618C109.458 48.3272 109.527 48.1713 110.076 48.1286C110.625 48.0858 111.546 46.9386 112.102 45.583C113.216 42.872 112.989 41.7496 111.835 44.2917C111.092 45.8983 111.034 45.9459 111.345 44.2868C111.598 43.2776 112.283 42.3208 112.96 42.0745C113.627 41.9365 113.822 41.5771 113.4 41.4164C112.919 41.3033 113.144 40.619 113.908 40.0002C115.103 38.8316 115.29 39.1827 116.253 46.1417C120.137 73.6528 116.983 105.455 108.109 130.432C96.9393 161.589 79.4124 186.939 55.3325 206.84C47.0348 213.66 45.1239 214.906 38.5267 217.937C27.9987 222.844 21.782 224.661 10.5616 226.31C0.508263 227.716 -1.11939 228.23 0.589408 229.259C1.72861 229.945 14.599 229.372 21.0722 228.352C31.4194 226.707 44.6352 221.634 54.5626 215.504C69.635 206.113 79.4204 197.285 92.1377 181.86C103.278 168.215 112.161 153.584 119.314 136.937C122.822 128.77 128.794 110.666 128.205 109.937C128.008 109.694 127.822 109.945 127.617 110.413C127.168 111.782 126.921 110.876 127.242 109.109C127.397 107.978 127.573 107.835 127.672 108.559C127.96 110.236 128.988 109.102 128.945 107.126C128.913 105.644 128.864 105.584 128.493 106.688C128.22 107.312 128.061 106.636 128.137 105.167C128.223 103.59 128.397 102.243 128.515 102.147C128.691 102.005 128.781 102.837 128.734 103.98C128.687 105.124 128.894 105.861 129.247 105.575C129.952 105.004 130.171 101.309 129.465 101.278C129.2 101.191 129.235 98.9508 129.535 96.1956L130.134 91.2874L129.8 96.2825C129.716 99.0639 129.867 101.053 130.278 100.719C131.513 99.7199 133.564 71.7251 133.066 61.9764C132.871 56.8075 132.756 52.5788 132.923 52.5443C133.08 52.6181 133.936 54.0357 134.929 55.7437C137.173 59.9571 142.237 66.2097 144.358 67.5072C145.605 68.206 146.969 68.2073 148.341 67.4981C149.537 66.9317 150.979 66.6689 151.548 67.0117C153.306 68.1009 154.803 65.9838 153.681 63.8771C150.984 58.6234 149.428 55.2598 148.816 52.9413C147.356 47.8924 142.966 39.587 136.208 29.0782C135.726 28.3629 134.997 26.7418 134.671 25.498C134.286 24.3019 133.046 21.6881 131.914 19.6897C130.783 17.6913 128.617 13.2137 127.09 9.52516C124.617 3.58715 124.086 2.8111 121.896 1.66948C119.186 0.245728 112.602 -0.553641 111.367 0.445955C110.897 0.826753 109.891 3.55092 109.033 6.4572ZM113.796 32.0499C113.943 32.232 113.954 32.7259 113.749 33.1936C113.602 33.6137 113.21 33.7303 112.964 33.4268C112.669 33.0626 112.718 32.521 113.011 32.2831C113.364 31.9975 113.698 31.9285 113.796 32.0499ZM119.411 102.082C118.674 107.302 115.42 120.591 113.808 124.61C112.773 127.057 113.522 123.535 115.414 116.978C116.398 113.266 117.82 107.089 118.432 103.277C119.967 94.5961 120.525 93.8428 119.411 102.082ZM126.836 113.055C126.818 113.874 126.575 114.775 126.222 115.06C125.869 115.346 125.76 114.731 126.014 113.722C126.549 111.378 126.843 111.14 126.836 113.055Z" fill="black" fill-opacity="0.02"/>
<path d="M54.3 215.08C69.3192 205.722 79.0641 196.93 91.7518 181.542L91.7524 181.543C102.863 167.935 111.72 153.344 118.855 136.74C120.6 132.675 122.965 126.123 124.821 120.491C125.407 118.713 125.939 117.029 126.386 115.548C126.224 115.632 125.992 115.688 125.749 115.543C125.487 115.387 125.42 115.099 125.397 114.956C125.341 114.613 125.396 114.133 125.526 113.611L125.526 113.61C125.661 113.019 125.784 112.549 125.893 112.207C125.947 112.038 126.001 111.889 126.056 111.768C126.1 111.673 126.179 111.512 126.313 111.403C126.389 111.341 126.543 111.251 126.746 111.28C126.745 111.277 126.742 111.275 126.741 111.272C126.701 111.202 126.676 111.131 126.66 111.072C126.598 110.853 126.587 110.549 126.602 110.227C126.618 109.894 126.666 109.492 126.747 109.041L126.746 109.041C126.786 108.749 126.829 108.508 126.875 108.323C126.898 108.231 126.924 108.143 126.954 108.066C126.979 107.999 127.025 107.897 127.102 107.809C127.143 107.762 127.215 107.693 127.324 107.65C127.448 107.602 127.588 107.601 127.718 107.652C127.928 107.736 128.015 107.919 128.039 107.969C128.104 108.11 128.14 108.296 128.165 108.475C128.176 108.536 128.189 108.59 128.201 108.638C128.242 108.546 128.285 108.432 128.322 108.291C128.387 108.045 128.431 107.744 128.442 107.404C128.405 107.413 128.367 107.418 128.325 107.419C128.029 107.427 127.868 107.218 127.813 107.127C127.751 107.026 127.718 106.914 127.697 106.826C127.615 106.476 127.6 105.876 127.638 105.141L127.638 105.139C127.681 104.342 127.747 103.598 127.818 103.038C127.853 102.76 127.891 102.518 127.929 102.336C127.947 102.246 127.969 102.158 127.993 102.083C128.006 102.046 128.022 102.001 128.045 101.956C128.062 101.923 128.108 101.833 128.2 101.759C128.259 101.711 128.352 101.655 128.476 101.637C128.609 101.618 128.732 101.65 128.83 101.707C128.993 101.804 129.064 101.957 129.09 102.016C129.153 102.163 129.184 102.351 129.205 102.524C129.247 102.893 129.257 103.416 129.233 104.001C129.228 104.14 129.226 104.269 129.228 104.388C129.307 104.03 129.363 103.61 129.386 103.196C129.412 102.718 129.394 102.28 129.337 101.975C129.315 101.859 129.288 101.782 129.269 101.735C129.125 101.676 129.041 101.573 129 101.509C128.952 101.435 128.923 101.359 128.904 101.299C128.865 101.177 128.841 101.034 128.825 100.89C128.792 100.594 128.781 100.195 128.788 99.7297C128.801 98.7942 128.887 97.5288 129.037 96.1412L129.039 96.1351L129.638 91.2266L130.633 91.3207L130.3 96.2975C130.269 97.3263 130.27 98.2357 130.304 98.9517C130.467 98.0991 130.638 96.9425 130.809 95.5539C131.165 92.6478 131.521 88.7593 131.823 84.5928C132.428 76.2516 132.814 66.843 132.567 62.0022L132.566 61.9952C132.469 59.4103 132.391 57.0564 132.359 55.3438C132.343 54.4889 132.338 53.7878 132.348 53.2958C132.353 53.0517 132.361 52.8479 132.375 52.6994C132.382 52.6283 132.392 52.5505 132.408 52.4814C132.416 52.4497 132.432 52.3934 132.462 52.3336C132.476 52.3068 132.574 52.1053 132.821 52.0541L132.984 52.0212L133.135 52.0912C133.225 52.1334 133.287 52.1944 133.31 52.2173C133.343 52.2493 133.374 52.2837 133.4 52.3156C133.453 52.38 133.512 52.4611 133.574 52.5505C133.699 52.7309 133.857 52.9766 134.037 53.2671C134.399 53.8504 134.864 54.6373 135.361 55.4921L135.366 55.5009L135.371 55.5084L135.586 55.9024C136.699 57.9001 138.391 60.3075 140.079 62.4057C140.978 63.5229 141.869 64.5457 142.664 65.3666C143.462 66.1911 144.137 66.7843 144.61 67.0757C145.696 67.6814 146.879 67.6905 148.112 67.0535L148.119 67.0501L148.127 67.0461C148.764 66.7445 149.468 66.522 150.099 66.4202C150.415 66.3693 150.725 66.3465 151.006 66.3642C151.28 66.3814 151.567 66.4399 151.806 66.5837L151.811 66.587C152.159 66.8023 152.452 66.8358 152.677 66.7883C152.905 66.7401 153.119 66.5965 153.284 66.3585C153.615 65.8787 153.727 65.026 153.24 64.1119L153.237 64.1059C150.549 58.8712 148.967 55.4611 148.337 53.0814L148.336 53.0807C146.987 48.4197 143.078 40.8758 137.027 31.2924L135.787 29.3485C135.272 28.5804 134.535 26.9318 134.196 25.6519L134.195 25.6512C133.826 24.5038 132.606 21.9248 131.48 19.936C130.335 17.9155 128.161 13.4194 126.628 9.71789L126.627 9.71713C125.386 6.73532 124.653 5.10554 123.97 4.07472C123.316 3.08989 122.714 2.66026 121.665 2.11332L121.664 2.1118C120.389 1.44223 118.137 0.896069 116.02 0.645775C114.968 0.521491 113.974 0.472936 113.178 0.514404C112.779 0.535166 112.442 0.57777 112.177 0.639764C111.902 0.704032 111.75 0.779215 111.682 0.834262C111.686 0.831054 111.654 0.860128 111.589 0.962624C111.528 1.0581 111.456 1.18934 111.373 1.35724C111.209 1.69235 111.019 2.14396 110.813 2.68289C110.403 3.75519 109.943 5.14346 109.517 6.58218C108.768 9.49845 107.405 15.0201 106.51 18.9558L106.511 18.958L106.118 20.5887C105.226 24.2011 103.719 29.7728 102.317 34.6418L101.628 37.0058C98.6684 46.9894 96.6944 54.356 95.7025 59.0247C95.2044 61.3692 94.9624 62.9959 94.956 63.9267C94.9553 64.0305 94.9585 64.1221 94.9632 64.2024C94.9915 64.1422 95.0225 64.0731 95.0565 63.9949C95.2033 63.6569 95.389 63.1789 95.6092 62.5747C96.0487 61.3684 96.616 59.6853 97.2678 57.6679C98.5711 53.6342 100.209 48.281 101.836 42.7747C103.464 37.2688 105.08 31.6121 106.343 26.9703C107.609 22.3132 108.508 18.7151 108.714 17.2995C108.967 15.4012 109.669 12.6261 110.331 10.4998C110.662 9.43685 110.989 8.51185 111.254 7.93048C111.32 7.78405 111.387 7.65174 111.451 7.54085C111.51 7.439 111.588 7.32047 111.684 7.23001C111.732 7.18564 111.817 7.11528 111.94 7.07842C112.086 7.03457 112.262 7.04628 112.414 7.15049C112.542 7.23803 112.603 7.35715 112.631 7.42602C112.662 7.501 112.678 7.57636 112.688 7.63966L112.69 7.65094L112.7 7.79088C112.705 7.94002 112.693 8.11616 112.674 8.29984C112.647 8.5587 112.601 8.87969 112.539 9.25218C112.414 9.99788 112.221 10.9734 111.974 12.1215C111.479 14.4195 110.764 17.4284 109.94 20.7112C108.292 27.2761 106.203 34.9554 104.555 40.2686L101.628 49.7379C100.63 52.9744 99.6887 56.0266 99.0429 58.1003C98.3946 60.1818 97.8157 62.1041 97.4179 63.5265C97.2186 64.2389 97.067 64.82 96.9743 65.2303C96.9506 65.3349 96.932 65.4257 96.9172 65.5027C97.0564 65.5133 97.2414 65.5119 97.4692 65.4955C98.0095 65.4566 98.7159 65.3392 99.4596 65.168C100.202 64.9971 100.965 64.7763 101.617 64.5366C102.284 64.2913 102.784 64.0443 103.039 63.8375C103.224 63.6878 103.498 63.3544 103.843 62.8298C104.179 62.3187 104.557 61.6664 104.956 60.918C105.755 59.4214 106.625 57.5654 107.401 55.7438C108.177 53.921 108.853 52.1453 109.264 50.8071C109.471 50.1342 109.605 49.5926 109.655 49.2186C109.672 49.0994 109.676 49.0104 109.676 48.9472C109.584 48.9035 109.5 48.8578 109.428 48.8059C109.371 48.7645 109.297 48.7027 109.238 48.6158C109.176 48.5254 109.108 48.3727 109.142 48.1843C109.176 47.9993 109.289 47.8826 109.371 47.8216C109.452 47.7615 109.538 47.7272 109.602 47.7063C109.732 47.6639 109.886 47.6417 110.038 47.6299C110.047 47.627 110.113 47.6073 110.238 47.5093C110.37 47.4058 110.527 47.2476 110.696 47.0366C110.924 46.75 111.157 46.3873 111.365 45.9843C111.328 45.9975 111.284 46.0089 111.234 46.0128C111.094 46.0237 110.958 45.9772 110.854 45.8868C110.765 45.8092 110.725 45.7203 110.707 45.672C110.672 45.5797 110.669 45.493 110.668 45.4548C110.665 45.363 110.676 45.2536 110.69 45.1488C110.719 44.9291 110.776 44.6072 110.854 44.1946L110.857 44.1797L110.86 44.1655C111.003 43.598 111.265 43.0482 111.589 42.6014C111.907 42.1637 112.32 41.7754 112.789 41.6047L112.805 41.5994C112.764 41.5449 112.729 41.4833 112.702 41.4144C112.609 41.1715 112.649 40.9239 112.715 40.7332C112.848 40.3522 113.168 39.9585 113.585 39.6193C113.729 39.4793 113.874 39.3439 114.017 39.2391C114.162 39.1332 114.357 39.0173 114.587 38.9913C114.855 38.961 115.093 39.0608 115.274 39.2406C115.433 39.3991 115.545 39.6147 115.633 39.8415C115.812 40.2996 115.969 41.0051 116.141 41.9966C116.314 42.9992 116.507 44.3344 116.748 46.0737C120.642 73.6618 117.482 105.545 108.579 130.599L108.579 130.601L108.05 132.061C96.8308 162.631 79.4269 187.576 55.6512 207.226L55.6505 207.226C51.5032 210.635 48.9312 212.667 46.5667 214.227C44.1956 215.79 42.0419 216.872 38.7379 218.39C28.1654 223.318 21.9019 225.149 10.6347 226.804L10.6312 226.805C5.58986 227.51 2.71285 227.985 1.30752 228.405C0.975111 228.504 0.75079 228.595 0.607372 228.672C0.665306 228.716 0.743868 228.769 0.846852 228.831C0.844415 228.829 0.89372 228.853 1.03918 228.884C1.17381 228.912 1.35454 228.938 1.58168 228.961C2.0356 229.007 2.6415 229.037 3.36925 229.05C4.8229 229.077 6.72968 229.038 8.80857 228.945C12.9687 228.761 17.7836 228.364 20.9939 227.858L20.9938 227.859C31.2686 226.226 44.4225 221.178 54.3002 215.079L54.3 215.08ZM114.206 33.3952C114.089 33.7 113.861 33.9641 113.536 34.0608C113.173 34.1684 112.811 34.0316 112.576 33.7412C112.344 33.4544 112.25 33.1029 112.268 32.7791C112.286 32.461 112.417 32.121 112.696 31.8944C112.913 31.7192 113.146 31.5913 113.368 31.5311C113.479 31.5013 113.608 31.4826 113.742 31.4988C113.875 31.515 114.053 31.5729 114.184 31.7349C114.371 31.9651 114.41 32.2823 114.405 32.5253C114.399 32.7852 114.338 33.0762 114.22 33.3585L114.221 33.3579C114.218 33.3642 114.215 33.3703 114.213 33.3765C114.211 33.3824 114.209 33.3888 114.206 33.3946L114.206 33.3952ZM113.723 125.767C113.677 125.803 113.538 125.904 113.336 125.888C113.092 125.867 112.962 125.697 112.912 125.601C112.866 125.513 112.852 125.428 112.847 125.384C112.841 125.332 112.84 125.281 112.84 125.236C112.842 125.147 112.852 125.044 112.866 124.935C112.896 124.714 112.949 124.421 113.024 124.067C113.322 122.656 113.987 120.125 114.931 116.85L114.931 116.85C115.913 113.146 117.33 106.987 117.938 103.198L117.939 103.189C118.323 101.017 118.647 99.3353 118.9 98.1641C119.026 97.5796 119.136 97.1164 119.227 96.7807C119.273 96.6135 119.316 96.4705 119.356 96.3574C119.388 96.2672 119.44 96.1279 119.522 96.0243C119.546 95.9937 119.591 95.9426 119.659 95.8984C119.73 95.8521 119.857 95.7952 120.017 95.818C120.179 95.841 120.286 95.932 120.343 96.0002C120.397 96.0646 120.425 96.1293 120.439 96.1665C120.486 96.2918 120.493 96.4421 120.496 96.5377C120.502 96.7729 120.482 97.1366 120.441 97.6144C120.36 98.5796 120.185 100.087 119.906 102.149L119.906 102.152L119.738 103.231C119.282 105.948 118.393 109.996 117.423 113.916C116.317 118.39 115.093 122.75 114.272 124.796L114.269 124.804L114.087 125.214C114.031 125.333 113.978 125.432 113.931 125.51C113.892 125.575 113.823 125.686 113.723 125.767ZM127.315 112.283C127.387 112.005 127.45 111.748 127.505 111.514C127.476 111.529 127.443 111.542 127.408 111.552C127.326 111.576 127.24 111.581 127.156 111.567C127.23 111.696 127.263 111.842 127.279 111.939C127.295 112.036 127.306 112.152 127.315 112.283Z" stroke="black" stroke-opacity="0.11"/>
</svg>
