<svg width="105" height="67" viewBox="0 0 105 67" fill="none" xmlns="http://www.w3.org/2000/svg">
<path d="M0.588833 0.32436C-0.187429 1.0702 -0.187429 4.55081 0.537082 6.73862C1.52035 9.52311 5.55691 14.9429 8.40321 17.3793C10.6802 19.3185 16.3728 22.4014 19.1156 23.2466C19.5814 23.3958 20.8234 25.1858 21.8584 27.2742C25.8432 34.9315 33.5541 40.3016 47.1646 44.7767C54.3062 47.1137 67.0369 48.9534 76.0415 48.9534C78.5773 48.9534 80.6991 49.1523 80.6991 49.4009C80.6991 49.5998 79.7158 50.4451 78.4738 51.1909C75.6275 53.0307 67.8649 60.2405 66.9334 61.9808C66.2606 63.2239 66.2606 63.5222 67.0369 64.6161C67.5026 65.3123 68.4859 66.0084 69.2622 66.2073C69.9867 66.3564 70.7112 66.7045 70.8665 66.9034C71.0217 67.152 71.9532 66.9034 72.9365 66.3564C73.9198 65.8095 76.0933 64.7156 77.6976 63.8703C81.4236 61.9808 95.2928 52.0362 94.9306 51.4396C94.8271 51.2407 95.0858 50.7434 95.6033 50.3954C96.3796 49.749 96.4314 49.7987 95.7586 50.5445C95.3963 51.0418 95.2928 51.4396 95.6033 51.4396C96.2244 51.4396 97.3629 50.1965 97.0006 49.8484C96.8454 49.6993 97.1559 49.3015 97.6216 48.9037C98.4496 48.2573 98.5014 48.307 97.8286 49.0529C97.4664 49.5501 97.3629 49.9479 97.6216 49.9479C98.2426 49.9479 99.7434 48.4065 99.8469 47.7103C99.8987 47.412 100.054 47.1137 100.209 46.9645C100.416 46.8153 100.364 47.0142 100.157 47.3126C99.9504 47.6606 100.002 47.959 100.261 47.959C100.83 47.959 101.813 46.9645 101.917 46.2187C101.969 45.9203 102.124 45.622 102.279 45.4728C102.486 45.3236 102.434 45.5225 102.176 45.9203C101.917 46.3678 102.02 46.517 102.486 46.3678C102.9 46.2187 103.159 45.8209 103.055 45.5225C103.004 45.2242 103.107 45.0253 103.314 45.0253C105.436 45.3734 105.591 42.2905 103.573 40.2022C101.399 37.9149 99.7952 37.2685 88.9792 34.2354C77.8528 31.1526 73.1435 30.4067 72.626 31.6995C71.798 33.7879 74.9548 35.7271 84.0629 38.7602C86.34 39.5558 88.41 40.3016 88.617 40.5502C89.3933 41.1469 78.1633 41.6441 69.0552 41.3458C59.6883 41.0475 53.1159 40.1524 46.0261 38.1635C40.437 36.6221 33.8646 33.6885 31.4841 31.6498C29.5175 30.009 26.9818 25.2356 27.758 24.6389C27.965 24.44 29.8281 23.7936 31.8463 23.1969C37.9529 21.3572 42.8175 17.6279 43.9043 13.8987C45.3533 8.82699 38.9879 1.21937 33.2436 1.21937C29.6728 1.21937 24.0837 5.64472 21.7032 10.4181C21.0822 11.6612 20.3059 13.9982 19.9954 15.639C19.2709 19.2191 18.8569 19.3185 14.3546 17.0313C9.02422 14.2965 4.5219 8.37948 3.79738 3.10885C3.48688 0.921035 3.27988 0.622697 2.24486 0.771866C2.03786 0.771866 1.72735 0.572974 1.5721 0.274637C1.31334 -0.123147 1.00284 -0.0734241 0.588833 0.32436ZM29.4658 4.94859C29.4658 5.04804 28.9483 5.44582 28.3273 5.74416C27.2405 6.29111 27.1888 6.29111 27.8615 5.54527C28.5343 4.7497 29.4658 4.40164 29.4658 4.94859ZM37.3319 8.52865C37.7977 10.2192 36.7109 12.5562 34.5891 14.396C32.2086 16.4346 28.2755 18.3738 28.0168 17.5782C27.6028 16.534 30.6043 11.7109 32.8296 9.722C35.2619 7.58391 36.9697 7.1364 37.3319 8.52865ZM85.8224 49.5998C85.7189 49.6993 83.2349 51.539 80.2851 53.6274C77.3353 55.7655 73.8163 58.4505 72.3672 59.6936C68.7964 62.7267 68.3824 62.4283 71.9015 59.2958C75.3688 56.2627 85.4602 48.9037 85.8224 49.202C85.9259 49.3512 85.9259 49.5501 85.8224 49.5998ZM94.1543 51.6385C94.1543 51.9865 83.1832 59.9919 82.9761 59.793C82.8726 59.6439 93.5333 51.5887 94.0508 51.4893C94.1026 51.4396 94.1543 51.539 94.1543 51.6385Z" fill="black" fill-opacity="0.02"/>
<path d="M71.168 66.4971C71.2307 66.4934 71.3285 66.4809 71.4629 66.4453C71.788 66.3591 72.2278 66.1789 72.6934 65.9199C73.6814 65.3703 75.8789 64.2633 77.4648 63.4277L77.4717 63.4248C78.5349 62.8857 80.4631 61.6606 82.6592 60.1787C82.6495 60.1707 82.6394 60.1625 82.6299 60.1533L82.5938 60.1191L82.5654 60.0781C82.449 59.9103 82.4731 59.7401 82.4883 59.6748C82.5049 59.6036 82.5339 59.5516 82.5469 59.5293C82.5748 59.4813 82.6061 59.4449 82.6211 59.4277C82.656 59.3878 82.6988 59.3461 82.7383 59.3096C82.8211 59.2329 82.9392 59.1314 83.082 59.0127C83.3702 58.7733 83.7848 58.4423 84.2822 58.0527C85.2785 57.2725 86.6197 56.2461 87.9795 55.2227C89.3393 54.1992 90.7205 53.1766 91.7949 52.4023C92.3316 52.0156 92.7954 51.6884 93.1426 51.4541C93.3154 51.3374 93.4643 51.2407 93.5811 51.1699C93.639 51.1348 93.6951 51.1029 93.7451 51.0771C93.7638 51.0676 93.7986 51.0511 93.8418 51.0342C93.9512 50.9794 94.0897 50.9525 94.2412 51.001C94.3241 51.0275 94.3878 51.0709 94.4365 51.1143C94.4703 50.9741 94.5319 50.8382 94.6064 50.7148C94.756 50.4674 94.9887 50.2182 95.2832 50.0117V50.0107C95.4793 49.8474 95.6397 49.7209 95.7578 49.6357C95.8142 49.5951 95.8762 49.5522 95.9355 49.5205C95.962 49.5064 96.014 49.48 96.0791 49.4629C96.1115 49.4544 96.1728 49.4415 96.249 49.4463C96.311 49.4503 96.4034 49.4695 96.4951 49.5293C96.5348 49.3962 96.6025 49.2775 96.667 49.1846C96.8187 48.9659 97.0498 48.7345 97.2969 48.5234L97.3057 48.5166L97.3135 48.5098C97.5221 48.3469 97.6924 48.2196 97.8184 48.1348C97.8789 48.094 97.9451 48.0523 98.0078 48.0215C98.0366 48.0073 98.0887 47.9837 98.1523 47.9688C98.1778 47.9628 98.3935 47.9064 98.5928 48.0596C98.7797 48.2033 98.7963 48.3969 98.7891 48.5049C98.9182 48.3582 99.0355 48.2109 99.1299 48.0723C99.2857 47.8433 99.344 47.6941 99.3525 47.6367L99.3545 47.625C99.4209 47.2422 99.6165 46.8397 99.8623 46.6035L99.8887 46.5791L99.917 46.5586C99.9573 46.5296 100.008 46.4964 100.066 46.4697C100.112 46.4488 100.227 46.4008 100.373 46.417C100.456 46.4263 100.553 46.4578 100.642 46.5283C100.73 46.5987 100.782 46.6851 100.81 46.7617C100.858 46.8965 100.839 47.0162 100.83 47.0635C100.827 47.0773 100.823 47.0909 100.819 47.1045C100.848 47.0778 100.876 47.0504 100.904 47.0215C101.201 46.7135 101.391 46.3721 101.422 46.1504L101.424 46.1328C101.49 45.7502 101.687 45.3484 101.933 45.1123L101.958 45.0879L101.987 45.0674C102.027 45.0388 102.079 45.0038 102.14 44.9766C102.183 44.9569 102.316 44.9008 102.481 44.9326C102.528 44.9416 102.575 44.9588 102.621 44.9824C102.629 44.9654 102.636 44.9483 102.645 44.9316C102.774 44.6824 103.021 44.5254 103.314 44.5254H103.354L103.396 44.5322C103.799 44.5984 104.038 44.4964 104.186 44.3535C104.348 44.1958 104.475 43.9142 104.497 43.501C104.54 42.6726 104.142 41.5104 103.214 40.5498L103.211 40.5469C102.172 39.4531 101.285 38.7601 99.3281 37.9609C97.8336 37.3508 95.7307 36.6855 92.4873 35.75L88.8438 34.7168C83.2824 33.1759 79.3483 32.2256 76.7471 31.8203C75.4418 31.6169 74.5061 31.5564 73.8809 31.6143C73.2114 31.6762 73.1035 31.8517 73.0898 31.8857C72.9442 32.2545 72.9669 32.6017 73.209 32.9951C73.4704 33.4197 73.994 33.9032 74.8809 34.4502C76.6505 35.5415 79.6664 36.7695 84.2207 38.2861L84.2275 38.2881C85.3658 38.6858 86.4592 39.0736 87.2949 39.3936C87.712 39.5532 88.0723 39.6987 88.3447 39.8223C88.4802 39.8837 88.602 39.9429 88.7012 39.999C88.769 40.0374 88.8723 40.102 88.958 40.1875C89.0325 40.2543 89.1413 40.3787 89.1543 40.5723C89.1707 40.8157 89.0281 40.9729 88.9531 41.0381C88.8173 41.1561 88.6301 41.2148 88.5078 41.249C88.2164 41.3306 87.7718 41.4016 87.2266 41.4648C86.1223 41.5928 84.4919 41.7022 82.5635 41.7832C79.1857 41.925 74.8614 41.981 70.7734 41.8926L69.0391 41.8457C60.2303 41.5651 53.8665 40.7577 47.2236 39.0078L45.8936 38.6455C43.0722 37.8674 40.0075 36.7399 37.3477 35.5498C34.8668 34.4398 32.6955 33.2566 31.4053 32.2324L31.1641 32.0342C30.1079 31.153 28.946 29.4828 28.1514 27.9873C27.7515 27.2348 27.4285 26.4964 27.2559 25.8926C27.1704 25.5937 27.1127 25.2998 27.1143 25.041C27.1156 24.8151 27.1655 24.4989 27.4121 24.2803L27.4111 24.2783C27.4243 24.2657 27.4389 24.2538 27.4531 24.2422V24.2432C27.5316 24.1791 27.6225 24.1301 27.6846 24.0986C27.7748 24.0529 27.8847 24.0034 28.0078 23.9521C28.2555 23.8491 28.5812 23.7276 28.957 23.5957C29.71 23.3315 30.688 23.0186 31.7021 22.7188V22.7178C34.7041 21.8134 37.3913 20.4476 39.4531 18.8604C41.5225 17.2672 42.9211 15.4837 43.4238 13.7598C44.0803 11.4588 42.9722 8.4611 40.8887 5.97852C38.812 3.50405 35.9112 1.71973 33.2432 1.71973C31.6289 1.71991 29.4503 2.73981 27.3379 4.41992C25.2433 6.08594 23.3025 8.33145 22.1504 10.6416C21.5522 11.839 20.7892 14.1317 20.4863 15.7324L20.4854 15.7383C20.3055 16.6269 20.1348 17.3564 19.8984 17.8906C19.6554 18.4399 19.3005 18.8753 18.7109 19.0205C18.1748 19.1525 17.5533 19.0111 16.8574 18.75C16.1444 18.4824 15.2506 18.0479 14.1279 17.4775L14.126 17.4766C11.3856 16.0706 8.87168 13.8546 6.9502 11.3232C5.15045 8.95219 3.84983 6.27646 3.38379 3.69238L3.30176 3.17676C3.22458 2.6332 3.15646 2.224 3.08301 1.91504C3.00796 1.59945 2.93685 1.43155 2.87695 1.3418C2.83256 1.27531 2.80355 1.26186 2.7627 1.25195C2.69041 1.23442 2.56287 1.23109 2.31641 1.2666L2.28027 1.27148H2.24512C2.00083 1.27148 1.77123 1.16374 1.60059 1.04297C1.43118 0.923037 1.27025 0.754254 1.15332 0.546875C1.1474 0.537773 1.13978 0.531335 1.13477 0.524414C1.08716 0.553061 1.02096 0.602534 0.935547 0.68457C0.857009 0.76003 0.735039 0.987448 0.640625 1.43652C0.551792 1.85909 0.503129 2.39682 0.5 2.99316C0.493762 4.18589 0.669409 5.54256 1.00879 6.57227C1.47441 7.89072 2.6911 9.89222 4.17285 11.8916C5.64895 13.8833 7.34396 15.8156 8.72754 17C9.82611 17.9354 11.7822 19.1701 13.8242 20.2842C15.8664 21.3983 17.94 22.3609 19.2627 22.7686L19.2686 22.7705C19.4187 22.8187 19.5484 22.912 19.6455 22.9932C19.7508 23.0811 19.8593 23.1902 19.9678 23.3115C20.1855 23.5548 20.4307 23.8774 20.6865 24.251C21.1994 24.9998 21.7792 25.9905 22.3057 27.0527C26.081 34.3005 33.295 39.51 46.0664 43.8809L47.3203 44.3018C54.4029 46.6194 67.08 48.4531 76.042 48.4531C77.3205 48.4531 78.5017 48.5032 79.3691 48.5859C79.7998 48.627 80.1685 48.6778 80.4375 48.7383C80.568 48.7676 80.7019 48.8047 80.8135 48.8564C80.8677 48.8816 80.9456 48.9238 81.0166 48.9902C81.087 49.0563 81.1992 49.1947 81.1992 49.4014C81.1991 49.5091 81.1678 49.5954 81.1465 49.6445C81.123 49.6986 81.0946 49.7456 81.0693 49.7832C81.0189 49.8582 80.9557 49.9327 80.8906 50.002C80.7587 50.1425 80.5786 50.3055 80.3691 50.4775C79.9509 50.821 79.3793 51.229 78.7441 51.6113H78.7451C77.3633 52.5046 74.7396 54.7388 72.3262 56.9893C71.1247 58.1096 69.986 59.2241 69.0918 60.1641C68.6444 60.6343 68.2615 61.0579 67.9639 61.4141C67.6601 61.7775 67.4647 62.0473 67.374 62.2168L67.373 62.2188L67.1582 62.6338C66.9865 62.9888 66.9358 63.1793 66.9414 63.3369C66.9485 63.5356 67.0495 63.7707 67.4443 64.3271L67.4521 64.3379C67.6425 64.6224 67.9564 64.9299 68.3232 65.1914C68.6905 65.4532 69.0743 65.6438 69.3857 65.7236C69.7795 65.8067 70.1679 65.939 70.4824 66.0801C70.643 66.1521 70.7913 66.23 70.916 66.3076C70.9956 66.3571 71.0872 66.421 71.168 66.4971ZM27.5312 6.62695C27.4879 6.6324 27.3779 6.64395 27.2549 6.59668C27.0882 6.53256 26.9572 6.38349 26.9268 6.19043C26.9045 6.04888 26.9463 5.93611 26.9629 5.89453C27.0004 5.80074 27.0602 5.71782 27.0986 5.66699C27.1869 5.55016 27.3254 5.39367 27.4902 5.21094C27.8665 4.76959 28.3298 4.42873 28.7412 4.27539C28.935 4.20319 29.205 4.13905 29.4648 4.22363C29.6095 4.27079 29.7476 4.36456 29.8438 4.5127C29.9362 4.65521 29.9658 4.81095 29.9658 4.94824C29.9658 5.05571 29.933 5.13882 29.9131 5.18164C29.891 5.22906 29.8654 5.26806 29.8457 5.29492C29.8065 5.34839 29.7612 5.39565 29.7217 5.43359C29.6404 5.51166 29.536 5.59546 29.4219 5.67773C29.1912 5.84394 28.8803 6.03327 28.543 6.19531C28.2779 6.32869 28.0629 6.43554 27.9043 6.50586C27.8255 6.54081 27.7451 6.57418 27.6719 6.59668C27.6356 6.60781 27.586 6.62005 27.5312 6.62695ZM28.207 18.249C27.9809 18.2174 27.6763 18.0963 27.5527 17.7627H27.5518C27.4453 17.4942 27.4716 17.1857 27.5234 16.9248C27.5788 16.6459 27.6829 16.331 27.8184 16C28.0902 15.3359 28.5112 14.5479 29.0078 13.7422C29.9977 12.136 31.3337 10.3887 32.4961 9.34961L32.499 9.34668C33.7295 8.26505 34.8371 7.55414 35.7295 7.31836C36.1803 7.19926 36.6382 7.18504 37.0352 7.37695C37.4486 7.57689 37.6981 7.95185 37.8154 8.40234L37.8145 8.40332C38.0862 9.3982 37.8926 10.528 37.3838 11.6182C36.8711 12.7163 36.0224 13.8149 34.917 14.7734L34.9141 14.7754L34.4375 15.167C33.2882 16.0744 31.9045 16.9248 30.7266 17.499C30.0569 17.8255 29.4271 18.0761 28.9307 18.1904C28.6882 18.2462 28.4336 18.2806 28.207 18.249ZM69.5283 62.3135C69.4596 62.3165 69.3069 62.3115 69.165 62.1992C69.0027 62.0707 68.9651 61.893 68.9658 61.7783C68.9665 61.676 68.995 61.5934 69.0127 61.5498C69.0499 61.4582 69.1072 61.3724 69.1562 61.3047C69.2608 61.1603 69.4205 60.9769 69.625 60.7617C70.0389 60.3262 70.6849 59.7092 71.5693 58.9219L71.5723 58.9199C73.3238 57.3877 76.7288 54.7778 79.7324 52.5947C81.2359 51.502 82.6462 50.5106 83.7061 49.8096C84.2345 49.46 84.6843 49.1778 85.0176 48.9902C85.1817 48.8979 85.3323 48.82 85.457 48.7695C85.517 48.7453 85.5936 48.7183 85.6738 48.7041C85.714 48.697 85.7744 48.6888 85.8447 48.6953C85.9132 48.7017 86.0309 48.726 86.1406 48.8164L86.1934 48.8604L86.2334 48.917C86.3405 49.0714 86.4004 49.2575 86.4004 49.4385C86.4003 49.5816 86.353 49.8522 86.1084 50.0098C86.0692 50.0416 86.0229 50.0801 85.9795 50.1133C85.8938 50.1788 85.7751 50.268 85.6279 50.3779C85.3327 50.5983 84.9182 50.9041 84.416 51.2715C83.9138 51.6388 83.3231 52.0688 82.6729 52.5371L80.5742 54.0352C77.6268 56.1717 74.1242 58.845 72.6924 60.0732L72.6914 60.0742L72.0537 60.6084C71.4526 61.1044 70.9609 61.4873 70.585 61.7578C70.3366 61.9365 70.1273 62.0743 69.9648 62.1641C69.8863 62.2075 69.7984 62.2514 69.7119 62.2793C69.6697 62.2929 69.6047 62.3102 69.5283 62.3135Z" stroke="black" stroke-opacity="0.11"/>
</svg>
