<svg width="72" height="172" viewBox="0 0 72 172" fill="none" xmlns="http://www.w3.org/2000/svg">
<path d="M50.2577 -51.1038C50.016 -50.5519 50.7409 -47.9305 51.8685 -45.3092C56.2983 -34.6168 57.748 -18.3367 55.1707 -6.74752C52.9961 3.11708 46.3112 18.2244 41.9619 23.0532L40.5122 24.7088L35.6797 22.1565C26.337 17.2586 15.7055 15.0512 9.90656 16.9827C4.34922 18.7763 0 24.5019 0 30.0205C0 36.8499 5.31571 42.2306 15.0612 45.1969C22.9542 47.6803 29.8002 47.5423 36.0019 44.783C38.5792 43.6792 40.6733 42.3686 40.6733 41.9547C40.6733 41.5408 40.9954 40.9199 41.3981 40.575C41.8008 40.2301 41.8814 40.437 41.4787 40.9889C40.9954 41.6787 41.3176 41.8167 42.5257 41.4718C43.9755 41.0579 44.3782 41.5408 45.8279 45.3348C51.4658 59.8213 51.3852 73.48 45.5057 92.9333C43.3311 100.108 39.3041 110.041 36.0019 116.25C33.8273 120.458 34.23 120.803 32.1359 112.869C31.5721 110.731 30.2835 108.317 29.0753 107.144C26.8202 104.936 21.1018 103.35 20.4574 104.729C20.2964 105.212 19.9742 114.249 19.8131 124.873C19.652 136.117 18.9272 148.12 18.2023 153.501C16.672 165.09 16.5915 169.367 17.9607 169.367C18.5245 169.367 19.5715 169.988 20.3769 170.746C21.4239 171.85 22.6321 172.057 26.5786 171.988C29.2364 171.919 31.6527 171.712 32.0554 171.505C32.4581 171.298 34.5521 168.746 36.8073 165.849C41.6398 159.709 50.4993 149.982 60.0031 140.256C67.0908 133.013 72.7286 124.39 71.9232 121.906C71.5205 120.458 68.5405 119.009 66.0437 119.009C65.2383 119.009 64.4329 118.664 64.2718 118.25C64.1107 117.836 61.8556 118.733 59.1977 120.251C56.5399 121.768 54.2847 122.941 54.1236 122.803C53.9626 122.665 54.9291 120.113 56.2177 117.146C60.6475 107.351 66.2048 87.1387 66.0437 81.3441C65.9632 80.2404 65.9632 76.5842 65.9632 73.273C66.0437 66.1678 65.7216 64.3052 63.1442 55.6823C60.9696 48.2321 58.3923 43.1274 53.882 37.1948C52.1907 34.9184 50.7409 32.8489 50.7409 32.6419C50.7409 31.9521 57.0231 23.95 57.9091 23.4671C59.681 22.5704 64.2718 12.7058 64.9162 8.49778C64.9967 7.46303 65.7216 5.18658 66.4464 3.39301C71.1984 -8.67905 68.46 -31.2366 60.6475 -43.9985C56.862 -50.138 51.4658 -53.7941 50.2577 -51.1038ZM8.05411 22.0875C7.49033 22.7083 6.846 22.9843 6.68491 22.8463C6.12113 22.3634 7.2487 21.0527 8.2152 21.0527C8.69844 21.0527 8.69844 21.4666 8.05411 22.0875ZM49.0496 27.1922C46.5528 30.0895 46.0695 29.3307 48.4052 26.1575C49.3717 24.7088 50.4187 23.95 50.5798 24.3639C50.7409 24.7778 50.016 26.0885 49.0496 27.1922ZM53.9626 25.7436C53.9626 26.4334 52.9155 28.02 51.6269 29.3307C49.6133 31.3312 49.2912 31.4692 49.6939 30.1585C49.9355 29.3307 50.4187 28.6409 50.8215 28.6409C51.2242 28.6409 51.5463 28.089 51.5463 27.3992C51.5463 26.3644 52.9155 24.5019 53.7209 24.5019C53.882 24.5019 53.9626 25.0538 53.9626 25.7436ZM28.5921 27.2612C30.364 27.9511 32.4581 29.0548 33.344 29.6066C34.7938 30.5724 34.7132 30.7104 32.5386 32.435C28.6726 35.4702 22.6321 37.6087 17.9607 37.6087C12.645 37.6087 11.5174 36.298 13.0477 31.8831C13.6115 30.2965 14.0142 28.5719 14.0947 28.02C14.0947 27.4682 14.739 26.9853 15.5444 26.8473C16.4304 26.7783 17.2358 26.5024 17.558 26.2955C18.5245 25.3987 25.6121 26.0195 28.5921 27.2612ZM35.0354 35.2633C31.5721 37.6087 30.4445 37.2638 33.7467 34.8494C35.277 33.7456 36.7268 32.9868 36.9684 33.1938C37.21 33.4007 36.4046 34.3665 35.0354 35.2633ZM54.0431 129.149C51.3047 132.392 48.2441 135.289 48.4858 134.392C48.8079 133.151 54.2042 127.356 55.0096 127.287C55.4123 127.287 54.9291 128.115 54.0431 129.149ZM66.3659 131.426C65.1578 133.357 63.708 135.22 63.1442 135.634C62.4999 136.048 63.3859 134.461 64.9967 132.185C68.46 127.08 69.4265 126.597 66.3659 131.426Z" fill="black" fill-opacity="0.02"/>
<path d="M26.5654 171.489V171.488C27.8865 171.454 29.1448 171.385 30.1191 171.3C30.607 171.257 31.0182 171.211 31.3281 171.164C31.4834 171.14 31.6076 171.117 31.7002 171.096C31.8021 171.072 31.8337 171.057 31.8271 171.061C31.8056 171.072 31.8352 171.057 31.9385 170.959C32.027 170.875 32.142 170.756 32.2822 170.604C32.5625 170.298 32.9267 169.876 33.3525 169.365C34.2033 168.345 35.2873 166.987 36.4131 165.541L36.4141 165.539C40.9602 159.763 49.0447 150.841 57.8711 141.73L59.6455 139.906C60.8293 138.696 61.9716 137.447 63.0498 136.196C62.9928 136.202 62.927 136.201 62.8564 136.185C62.6519 136.136 62.5191 135.985 62.4648 135.825C62.4218 135.699 62.4317 135.583 62.4404 135.521C62.4589 135.388 62.5108 135.248 62.5635 135.126C62.6202 134.995 62.6957 134.844 62.7852 134.68C63.0525 134.188 63.4783 133.511 64.0156 132.721L64.5889 131.896C65.4553 130.619 66.1692 129.626 66.7061 128.929C66.9746 128.58 67.2026 128.3 67.3857 128.095C67.477 127.993 67.5619 127.904 67.6377 127.833C67.7055 127.769 67.7943 127.691 67.8926 127.639C67.9365 127.615 68.0395 127.565 68.1738 127.565C68.249 127.566 68.3426 127.582 68.4355 127.635C68.5304 127.689 68.5963 127.766 68.6377 127.842C68.7107 127.976 68.7075 128.105 68.7041 128.157C68.6998 128.223 68.6864 128.283 68.6738 128.329C68.6266 128.503 68.5177 128.742 68.375 129.019C68.21 129.339 67.9723 129.756 67.6631 130.273C67.9572 129.849 68.2381 129.432 68.5039 129.023C69.5922 127.352 70.4257 125.843 70.9355 124.611C71.1906 123.995 71.359 123.461 71.4414 123.019C71.5252 122.569 71.5112 122.258 71.4473 122.061L71.4443 122.051L71.4414 122.04C71.3758 121.804 71.1882 121.519 70.8506 121.213C70.5183 120.912 70.0715 120.62 69.5488 120.363C68.4999 119.849 67.2055 119.509 66.0439 119.509C65.5752 119.509 65.1054 119.409 64.7197 119.244C64.4359 119.123 64.1256 118.933 63.9316 118.66C63.9141 118.663 63.8942 118.663 63.873 118.667C63.6463 118.708 63.3022 118.814 62.8545 118.991C61.9674 119.342 60.7611 119.933 59.4453 120.685C58.1131 121.445 56.8775 122.123 55.9512 122.594C55.4896 122.828 55.0954 123.016 54.8018 123.138C54.6575 123.197 54.5218 123.248 54.4072 123.278C54.3518 123.293 54.2797 123.309 54.2041 123.313C54.1661 123.315 54.0125 123.324 53.8623 123.229L53.7988 123.183C53.6988 123.097 53.6551 122.995 53.6357 122.935C53.6157 122.871 53.6095 122.815 53.6074 122.776C53.6033 122.7 53.6112 122.625 53.6201 122.566C53.6386 122.445 53.6758 122.299 53.7217 122.14C53.815 121.816 53.9655 121.377 54.1582 120.86C54.5449 119.823 55.1124 118.435 55.7588 116.947L55.7617 116.94C57.9612 112.077 60.4503 104.603 62.3701 97.6123C63.3293 94.1197 64.1444 90.7561 64.709 87.9082C65.2755 85.0508 65.5816 82.7514 65.5439 81.3633C65.4629 80.216 65.4629 76.5524 65.4629 73.2734V73.2676C65.5031 69.7209 65.4421 67.5142 65.0566 65.127C64.6699 62.7321 63.9546 60.1397 62.665 55.8252L62.6641 55.8223C60.5062 48.4297 57.9568 43.3799 53.4844 37.4971L53.4805 37.4932C52.6328 36.3523 51.8446 35.2606 51.2666 34.4268C50.9783 34.0108 50.7386 33.6549 50.5703 33.3867C50.4867 33.2535 50.4165 33.1345 50.3652 33.0381C50.3399 32.9905 50.315 32.9398 50.2949 32.8906C50.2862 32.8693 50.2604 32.8076 50.248 32.7275L50.2412 32.6416L50.2559 32.501C50.2647 32.459 50.2762 32.4231 50.2852 32.3965C50.3057 32.3354 50.3323 32.2736 50.3604 32.2148C50.4168 32.0968 50.4944 31.9588 50.585 31.8096C50.7672 31.5095 51.0242 31.1282 51.3281 30.6973C51.6307 30.2682 51.9849 29.7841 52.3682 29.2734C52.2426 29.4113 52.1145 29.5483 51.9834 29.6816L51.9795 29.6855L51.2959 30.3555C51.0918 30.5513 50.9108 30.7197 50.752 30.8613C50.4532 31.1277 50.1786 31.3489 49.9512 31.4463C49.8548 31.4875 49.5966 31.582 49.3408 31.4287C49.075 31.2693 49.0468 30.987 49.043 30.8818C49.0382 30.7482 49.0614 30.6045 49.0898 30.4746C49.1198 30.3378 49.1636 30.1816 49.2158 30.0117C49.3497 29.5556 49.5528 29.1242 49.793 28.7949C49.9135 28.6297 50.0547 28.4752 50.2139 28.3584C50.3667 28.2463 50.5684 28.1462 50.8047 28.1416C50.8155 28.1365 50.8527 28.1131 50.9033 28.0264C50.9816 27.8921 51.0459 27.6724 51.0459 27.3994C51.0459 27.0429 51.1609 26.6595 51.3154 26.3086C51.4732 25.9502 51.6894 25.5877 51.9307 25.2637C52.1708 24.9411 52.4471 24.6416 52.7314 24.417C52.9988 24.2059 53.3472 24.002 53.7207 24.002C54.0791 24.002 54.2383 24.3011 54.2773 24.3818C54.3367 24.5049 54.3715 24.6475 54.3945 24.7754C54.4422 25.041 54.4629 25.3847 54.4629 25.7432C54.4629 26.0217 54.3623 26.3285 54.2354 26.6143C54.1241 26.8645 53.9737 27.1352 53.7979 27.416C54.5788 26.4248 55.3725 25.4525 56.0361 24.6816C56.3956 24.264 56.7206 23.9009 56.9863 23.625C57.119 23.4873 57.2409 23.3667 57.3477 23.2705C57.4462 23.1817 57.5596 23.0884 57.6699 23.0283L57.6768 23.0244L57.6836 23.0215C57.8056 22.9597 58.0154 22.778 58.3047 22.4229C58.5822 22.0822 58.8969 21.627 59.2354 21.0791C59.9116 19.9841 60.6631 18.5537 61.3828 17.0127C62.7386 14.1096 63.9502 10.8836 64.3525 8.81934L64.4219 8.42188C64.4729 7.84504 64.6854 6.989 64.9619 6.08398C65.2482 5.1469 65.6148 4.11561 65.9824 3.20605V3.20703C68.3146 -2.72024 68.8247 -11.2824 67.7627 -19.9834C66.7014 -28.679 64.0795 -37.434 60.2217 -43.7363C58.3563 -46.7617 56.1059 -49.1528 54.2041 -50.4492C53.2457 -51.1025 52.4256 -51.4432 51.8174 -51.4932C51.5214 -51.5175 51.2986 -51.4718 51.1328 -51.3828C50.9738 -51.2973 50.83 -51.1521 50.7188 -50.9092C50.7171 -50.8993 50.7115 -50.8662 50.7109 -50.7998C50.7101 -50.7037 50.7204 -50.5721 50.7441 -50.4043C50.7916 -50.0695 50.8884 -49.6309 51.0312 -49.1162C51.3163 -48.089 51.7719 -46.7999 52.3281 -45.5068L52.3301 -45.501C56.6597 -35.0504 58.1643 -19.3465 55.8906 -7.74805L55.6592 -6.63867C54.5623 -1.66353 52.3338 4.61217 49.8389 10.2441C47.3519 15.8581 44.5682 20.9031 42.3369 23.3828H42.3379L40.8887 25.0381L40.6279 25.3359L40.2783 25.1514L35.4473 22.5996C30.8151 20.1713 25.8664 18.4117 21.3652 17.499C16.8496 16.5834 12.8428 16.5316 10.0645 17.457L10.0605 17.459L9.56055 17.6318C4.43509 19.5368 0.500021 24.9006 0.5 30.0205C0.5 36.5228 5.54771 41.7787 15.207 44.7188L15.2109 44.7197C23.0141 47.1748 29.7315 47.0257 35.7988 44.3262L35.8047 44.3232C37.0749 43.7793 38.221 43.1864 39.043 42.6836C39.4555 42.4312 39.7746 42.209 39.9844 42.0332C40.0806 41.9526 40.1422 41.8904 40.1777 41.8486C40.1999 41.5616 40.3072 41.2632 40.4414 41.0068C40.5959 40.7117 40.8148 40.4167 41.0732 40.1953C41.1864 40.0984 41.3238 39.9973 41.4707 39.9453C41.5397 39.9209 41.6811 39.8817 41.8447 39.9287C42.0542 39.989 42.1814 40.1536 42.2246 40.3203C42.2593 40.4541 42.2386 40.5737 42.2227 40.6406C42.2045 40.7169 42.1758 40.7896 42.1455 40.8545C42.1109 40.9286 42.0657 41.0066 42.0137 41.0889C42.1223 41.0641 42.247 41.0317 42.3887 40.9912C42.7694 40.8825 43.1567 40.8085 43.5361 40.875C43.9403 40.946 44.2693 41.1628 44.5576 41.501C44.8345 41.8258 45.0891 42.279 45.3584 42.8623C45.63 43.4505 45.9316 44.2052 46.2939 45.1533C51.8054 59.315 51.8865 72.6882 46.5205 91.2637L45.9844 93.0781L45.5537 94.459C43.4494 101.041 40.0474 109.427 37.0732 115.272L36.4434 116.484C35.9158 117.505 35.5141 118.353 35.2031 118.87C35.0527 119.12 34.8783 119.374 34.668 119.526C34.5525 119.61 34.3911 119.688 34.1934 119.685C33.9901 119.681 33.8266 119.591 33.709 119.488C33.5024 119.307 33.3587 119.014 33.2412 118.72C33.1147 118.402 32.9832 117.986 32.8369 117.474C32.5444 116.45 32.1732 114.97 31.6523 112.997C31.1046 110.919 29.8526 108.595 28.7275 107.503L28.7256 107.501C27.6821 106.48 25.7789 105.562 24.0283 105.073C23.1577 104.83 22.3626 104.704 21.7666 104.714C21.4676 104.719 21.2461 104.758 21.0977 104.814C20.9926 104.854 20.9485 104.896 20.9277 104.921C20.9257 104.935 20.9246 104.955 20.9219 104.978C20.9118 105.063 20.9007 105.183 20.8887 105.337C20.8646 105.644 20.8381 106.074 20.8105 106.612C20.7554 107.689 20.6951 109.192 20.6348 111.015C20.5442 113.748 20.4535 117.194 20.3799 120.986L20.3135 124.88C20.1624 135.428 19.5148 146.658 18.834 152.478L18.6982 153.567C17.9331 159.362 17.5339 163.302 17.4941 165.787C17.4741 167.037 17.5466 167.874 17.6875 168.384C17.7579 168.638 17.8341 168.767 17.8867 168.825C17.924 168.867 17.9404 168.867 17.9609 168.867C18.3827 168.867 18.8831 169.082 19.3281 169.339C19.7963 169.609 20.2904 169.978 20.7197 170.383L20.7305 170.392L20.7393 170.402C21.1873 170.875 21.6563 171.154 22.4863 171.316C23.3529 171.486 24.59 171.524 26.5654 171.489ZM6.97461 23.3652C6.86524 23.3845 6.6446 23.4074 6.44434 23.2871L6.35938 23.2256C6.0398 22.9516 5.99328 22.5694 6.06152 22.2559C6.12652 21.9574 6.29772 21.6751 6.49609 21.4434C6.88219 20.9924 7.53255 20.5529 8.21484 20.5527C8.39267 20.5527 8.62034 20.5889 8.80566 20.7441C9.01705 20.9214 9.07928 21.1714 9.05469 21.3926C9.03241 21.5929 8.94166 21.7794 8.83691 21.9385C8.72805 22.1038 8.58055 22.2746 8.40137 22.4473H8.40039C8.08846 22.7852 7.75005 23.0407 7.44727 23.1963C7.29439 23.2749 7.13193 23.3375 6.97461 23.3652ZM46.9414 29.4961C46.7705 29.4772 46.5996 29.3884 46.4922 29.2178C46.4004 29.0718 46.3878 28.9177 46.3906 28.8174C46.3937 28.7106 46.4161 28.6047 46.4434 28.5078C46.4982 28.3131 46.5963 28.0859 46.7256 27.8359C46.9843 27.3357 47.4044 26.6768 47.9893 25.8809V25.8799C48.4926 25.1254 49.0299 24.53 49.4844 24.1699C49.7032 23.9966 49.9449 23.8442 50.1816 23.7822C50.3019 23.7508 50.4697 23.73 50.6445 23.791C50.8419 23.8599 50.9781 24.0084 51.0459 24.1826C51.1519 24.4551 51.087 24.7587 51.0225 24.9707C50.9487 25.213 50.8269 25.4832 50.6768 25.7588C50.3757 26.3114 49.9311 26.9433 49.4277 27.5186H49.4287C48.7966 28.252 48.2744 28.7747 47.8789 29.0898C47.6869 29.2428 47.4926 29.3732 47.3096 29.4424C47.2192 29.4765 47.0884 29.5123 46.9414 29.4961ZM17.9609 38.1084C16.6177 38.1084 15.5059 38.0267 14.6221 37.8223C13.7399 37.6181 13.0321 37.2801 12.5576 36.7275C12.0746 36.1649 11.8934 35.4495 11.9229 34.6221C11.952 33.8049 12.1868 32.8404 12.5752 31.7197L12.5762 31.7158C13.1313 30.1534 13.5246 28.4615 13.5996 27.9482C13.6258 27.5 13.8909 27.1368 14.207 26.8867C14.5448 26.6197 14.9889 26.4352 15.46 26.3545L15.4824 26.3506L15.5059 26.3486C16.3186 26.2853 17.0221 26.0352 17.2705 25.8848C17.4901 25.7069 17.7906 25.606 18.0762 25.541C18.4054 25.4661 18.8037 25.4196 19.2422 25.3945C20.121 25.3442 21.2162 25.3781 22.3633 25.4785C24.6399 25.6778 27.2102 26.1479 28.7725 26.7959L28.7734 26.7949C30.5758 27.4966 32.6976 28.6153 33.6084 29.1826L33.6152 29.1865L33.6211 29.1904C33.9736 29.4253 34.293 29.6469 34.5029 29.874C34.6132 29.9933 34.7176 30.139 34.7754 30.3164C34.8364 30.5038 34.8343 30.6945 34.7793 30.8789C34.6814 31.2067 34.4167 31.497 34.126 31.7676C33.818 32.0542 33.389 32.3993 32.8496 32.8271L32.8477 32.8281L32.4707 33.1162C28.5149 36.0631 22.6002 38.1083 17.9609 38.1084ZM32.0605 37.3457C31.9652 37.356 31.8356 37.3596 31.7041 37.3184C31.5565 37.272 31.3856 37.1593 31.3096 36.9463C31.2436 36.7616 31.2834 36.5921 31.3184 36.4932C31.3878 36.297 31.5384 36.1018 31.6982 35.9258C32.0368 35.5532 32.617 35.0552 33.4512 34.4453L33.4541 34.4443C34.2333 33.8824 34.9998 33.402 35.6113 33.0859C35.9143 32.9293 36.1962 32.8035 36.4316 32.7314C36.5477 32.6959 36.6753 32.667 36.7998 32.6611C36.9068 32.6561 37.117 32.6629 37.2939 32.8145C37.4676 32.9634 37.5158 33.1641 37.5107 33.3213C37.506 33.465 37.4588 33.5942 37.4131 33.6914C37.3198 33.8894 37.1622 34.0999 36.9775 34.3047C36.6476 34.6704 36.1631 35.0935 35.5703 35.5059L35.3096 35.6816C34.4335 36.2746 33.6938 36.7055 33.125 36.9785C32.8413 37.1147 32.5886 37.217 32.376 37.2793C32.2698 37.3104 32.1627 37.3346 32.0605 37.3457ZM48.541 135.058C48.4603 135.057 48.3481 135.041 48.2373 134.972C48.1202 134.899 48.046 134.792 48.0078 134.687C47.9437 134.508 47.9821 134.34 48.0029 134.263C48.0661 134.023 48.2262 133.739 48.4062 133.461C48.5974 133.166 48.848 132.825 49.1348 132.459C49.7091 131.727 50.4482 130.873 51.1992 130.061C51.9502 129.248 52.72 128.467 53.3574 127.883C53.6751 127.592 53.968 127.342 54.2129 127.16C54.3348 127.07 54.454 126.989 54.5645 126.928C54.6603 126.875 54.806 126.803 54.9668 126.789L54.9883 126.787H55.0098C55.1396 126.787 55.3304 126.821 55.4814 126.979C55.631 127.135 55.6566 127.324 55.6533 127.446C55.6473 127.667 55.544 127.893 55.4502 128.067C55.2435 128.451 54.8733 128.949 54.4229 129.475H54.4219C53.0436 131.106 51.5828 132.655 50.4902 133.687C49.9495 134.197 49.4777 134.603 49.1436 134.824C49.0584 134.881 48.971 134.933 48.8857 134.973C48.8131 135.006 48.6868 135.058 48.541 135.058Z" stroke="black" stroke-opacity="0.11"/>
</svg>
