<svg width="128" height="199" viewBox="0 0 128 199" fill="none" xmlns="http://www.w3.org/2000/svg">
<path d="M24.0875 7.68393C22.6435 10.783 23.7297 14.602 31.9274 33.504C36.0531 43.1807 41.3221 55.8254 43.624 61.6478C45.9259 67.4701 48.3538 72.7793 48.9501 73.4416C50.0931 74.711 52.9137 74.9695 53.0663 73.8327C53.1121 73.4917 54.1209 72.7832 55.3438 72.1819C57.3997 71.33 57.5754 70.872 57.6088 65.945C57.7114 63.0544 57.8485 60.3327 58.1236 59.9851C58.349 59.5822 58.1616 58.8516 57.6646 58.2996C57.2174 57.8029 56.8961 56.793 56.9877 56.1109C57.4304 52.8142 55.7167 45.163 52.4663 36.1972C51.0515 32.2745 49.9692 28.8517 50.015 28.5107C50.1371 27.6012 60.3543 35.2909 67.5941 41.7639C89.4129 61.2933 107.52 96.5568 109.455 123.396C110.299 135.828 106.507 151.735 100.394 161.536C90.1511 177.854 64.5169 190.142 39.5378 190.747C32.4445 190.838 29.7042 190.407 21.2881 187.592C15.8149 185.824 9.94415 183.615 8.18211 182.703C6.04169 181.632 4.25303 181.344 2.63652 181.9C-0.95572 183.136 -0.894321 184.38 2.92435 187.837C7.0412 191.625 16.5201 195.882 24.2022 197.36C49.1519 202.078 89.3392 188.579 108.349 169.064C124.099 152.984 131.168 127.131 126.378 103.262C124.259 92.6781 117.965 75.7596 113.522 68.8664C112.773 67.6423 111.439 65.246 110.586 63.5153C109.669 61.8431 104.852 55.1871 99.7101 48.8237C92.0799 39.3044 89.2473 36.1584 83.6322 31.6204C72.4172 22.4307 57.4413 12.33 54.6705 12.1266C53.9328 12.0912 53.3557 11.7115 53.4664 11.3119C53.5236 10.461 56.6537 10.5408 78.4726 11.7817C86.4717 12.1745 93.1791 12.8309 93.4275 13.1068C93.676 13.3828 95.9155 12.8654 98.495 11.9419C102.576 10.4656 103.081 10.1114 103.409 8.51653C103.596 7.5486 103.997 6.68775 104.341 6.67786C104.685 6.66796 104.303 6.11275 103.428 5.40186C100.106 2.49651 72.7985 -0.398403 53.4374 0.0452445C34.7642 0.469105 26.414 2.69101 24.0875 7.68393ZM56.9369 69.2484C57.0859 69.414 57.0746 69.9239 56.8339 70.4404C56.6582 70.8984 56.234 71.0805 55.9855 70.8045C55.6874 70.4734 55.7637 69.9049 56.0885 69.6125C56.4782 69.2616 56.8375 69.138 56.9369 69.2484ZM114.348 126.086C114.543 127.609 114.441 130.5 114.101 132.605C113.452 136.587 113.345 135.684 113.527 127.525C113.629 122.936 113.919 122.475 114.348 126.086ZM126.603 117.75C126.775 118.595 126.703 121.258 126.497 123.642C126.07 128.524 125.814 127.455 125.831 120.943C125.918 116.468 126.201 115.214 126.603 117.75Z" fill="black" fill-opacity="0.02"/>
<path d="M68.3434 191.825C83.837 186.617 98.5583 178.398 107.991 168.715L107.991 168.714C123.615 152.763 130.649 127.083 125.888 103.36L125.888 103.36C124.835 98.1026 122.741 91.2544 120.353 84.8551C118.111 78.8494 115.625 73.278 113.518 69.8036L113.102 69.1374L113.096 69.1273C112.341 67.8951 111.007 65.4998 110.147 63.757L110.148 63.7563C109.708 62.9548 108.296 60.9 106.329 58.2249C104.372 55.5621 101.886 52.3133 99.3207 49.138L99.3201 49.1359C91.6956 39.6238 88.8898 36.5118 83.3179 32.0087L83.3152 32.0072C77.7207 27.423 71.186 22.6095 65.7059 18.9184C62.9654 17.0725 60.4941 15.5107 58.5404 14.4002C57.5631 13.8447 56.7218 13.4061 56.0451 13.1015C55.3495 12.7883 54.8837 12.6441 54.6338 12.6258C54.199 12.603 53.7825 12.4792 53.4721 12.271C53.1847 12.0783 52.8631 11.7082 52.9753 11.2202C53.013 10.9457 53.1801 10.7377 53.4136 10.6036C53.6313 10.4785 53.9202 10.4056 54.2584 10.3567C54.9461 10.2574 56.0625 10.2283 57.8189 10.2626C61.3476 10.3315 67.596 10.6634 78.5008 11.2835C82.505 11.4802 86.1876 11.7421 88.9024 11.9905C90.2593 12.1146 91.3793 12.2355 92.1781 12.3433C92.5761 12.3971 92.9023 12.4478 93.141 12.4961C93.2591 12.52 93.3669 12.5461 93.455 12.5734C93.4984 12.5869 93.5477 12.6037 93.5954 12.6257C93.614 12.6343 93.6478 12.6522 93.688 12.679C93.734 12.6823 93.8092 12.6824 93.9193 12.6731C94.1703 12.6519 94.5283 12.59 94.9752 12.4871C95.8641 12.2825 97.0488 11.9294 98.3247 11.4726L98.3248 11.4713C100.387 10.7254 101.462 10.2901 102.073 9.86363C102.361 9.66277 102.527 9.47618 102.641 9.27242C102.76 9.05957 102.841 8.79843 102.919 8.41576L102.92 8.41648C103.02 7.90163 103.178 7.402 103.368 7.0169C103.463 6.82549 103.575 6.64037 103.708 6.49536C103.731 6.46976 103.76 6.44407 103.79 6.41665C103.64 6.25085 103.415 6.03581 103.112 5.78994L103.106 5.78406L103.098 5.77884C102.767 5.48895 102.065 5.14961 100.966 4.79445C99.8888 4.44617 98.4939 4.10158 96.8387 3.76703C93.5299 3.09822 89.2169 2.47972 84.3945 1.96492C75.3523 0.99966 64.5516 0.401753 55.2811 0.513139L53.4491 0.54505C44.1207 0.756794 37.4126 1.41813 32.7589 2.63532C28.0979 3.85445 25.6097 5.60176 24.5409 7.89553C23.8962 9.27931 23.7679 10.8629 24.8705 14.5241C25.9763 18.1956 28.285 23.8479 32.3866 33.3051L32.3878 33.308L33.9802 37.057C37.7848 46.0412 42.0727 56.3641 44.0891 61.4643C45.2373 64.3686 46.4165 67.1441 47.382 69.2736C47.8649 70.3387 48.2931 71.2385 48.6358 71.9109C48.8073 72.2475 48.9553 72.5232 49.0768 72.732C49.2044 72.9514 49.2847 73.0665 49.3212 73.1072C49.7834 73.6204 50.6404 73.9674 51.4263 74.041C51.8147 74.0774 52.1334 74.0415 52.3411 73.9624C52.5418 73.8859 52.5651 73.8064 52.5705 73.7663C52.5899 73.6221 52.6522 73.5023 52.7071 73.4174C52.7648 73.328 52.8361 73.2439 52.9103 73.1673C53.0589 73.0143 53.2536 72.8554 53.4715 72.6989C53.9101 72.384 54.4941 72.0426 55.1236 71.733L55.1371 71.7261L55.1526 71.72C55.4681 71.5893 55.7168 71.4731 55.9204 71.3599C55.8104 71.3116 55.7053 71.2407 55.6138 71.1392C55.3523 70.8487 55.272 70.4744 55.3058 70.1432C55.3394 69.8137 55.4891 69.4789 55.7534 69.2407C55.979 69.0376 56.2152 68.8821 56.4338 68.7937C56.541 68.7504 56.6695 68.7132 56.8033 68.7094C56.8655 68.7076 56.949 68.7141 57.0374 68.7417C57.0841 68.0258 57.1008 67.118 57.1088 65.9415L57.1091 65.9346L57.1088 65.927C57.1602 64.4817 57.2206 63.0701 57.3029 61.9743C57.3439 61.4275 57.3911 60.9495 57.4471 60.5816C57.4749 60.3984 57.5069 60.232 57.5439 60.0936C57.5702 59.9951 57.6139 59.8604 57.6882 59.7416L57.6875 59.7409C57.7122 59.6966 57.7448 59.562 57.6822 59.3278C57.6229 59.1062 57.4916 58.855 57.2933 58.6346C57.0064 58.316 56.7855 57.8669 56.6473 57.4238C56.5089 56.9806 56.4335 56.4808 56.492 56.0445C56.7005 54.4921 56.4026 51.8314 55.6243 48.3906C54.8505 44.9699 53.616 40.8358 51.9962 36.3679L51.9963 36.3665C51.2872 34.4005 50.66 32.5583 50.216 31.1625C49.9942 30.4652 49.8171 29.8747 49.6974 29.4349C49.6378 29.2161 49.5907 29.0286 49.5598 28.8807C49.5444 28.8072 49.5316 28.7367 49.5236 28.6742C49.5171 28.6239 49.5069 28.5349 49.519 28.4444C49.5425 28.2694 49.6449 28.0998 49.8262 28.0062C49.973 27.9305 50.1189 27.9329 50.2009 27.9407C50.3695 27.9569 50.5514 28.0253 50.7121 28.0968C51.053 28.2486 51.5165 28.5166 52.0644 28.8661C53.1687 29.5706 54.6957 30.6574 56.4365 31.969C59.9209 34.5943 64.2954 38.1443 67.9268 41.3911L67.9274 41.3918C78.8918 51.2057 88.9088 64.9567 96.4264 79.6106C103.943 94.2625 108.98 109.854 109.954 123.359L109.954 123.362L110.02 124.547C110.564 136.886 106.798 152.212 100.819 161.8L100.817 161.801C95.6304 170.064 86.5749 177.27 75.7084 182.484C65.1761 187.538 52.907 190.738 40.7282 191.21L39.55 191.247L39.5438 191.247C35.9874 191.293 33.4931 191.208 30.8245 190.752C28.4937 190.354 26.0439 189.674 22.6461 188.567L21.1297 188.066C15.6663 186.302 9.76791 184.085 7.95804 183.15C5.8803 182.111 4.23868 181.878 2.79952 182.373C1.91407 182.678 1.30917 182.965 0.93742 183.256C0.584097 183.533 0.488612 183.771 0.50025 184.011C0.514365 184.301 0.688021 184.717 1.15651 185.316C1.61639 185.904 2.31175 186.607 3.26006 187.466L3.26268 187.469C5.26362 189.31 8.60722 191.296 12.4311 193.009C16.2474 194.719 20.5003 196.139 24.2965 196.869L24.2964 196.871C36.656 199.208 52.8475 197.034 68.3434 191.825ZM113.987 135.216C113.942 135.266 113.797 135.41 113.559 135.398C113.315 135.384 113.185 135.218 113.145 135.156C113.097 135.084 113.072 135.013 113.059 134.971C113.033 134.881 113.017 134.776 113.005 134.674C112.915 133.883 112.936 131.57 113.026 127.514C113.052 126.364 113.09 125.464 113.139 124.819C113.164 124.497 113.192 124.23 113.225 124.023C113.241 123.92 113.259 123.825 113.281 123.741C113.3 123.666 113.331 123.568 113.383 123.478C113.414 123.426 113.585 123.15 113.931 123.193C114.082 123.212 114.185 123.29 114.241 123.343C114.298 123.397 114.336 123.454 114.359 123.494C114.442 123.637 114.497 123.839 114.541 124.031C114.636 124.452 114.737 125.123 114.844 126.028C115.046 127.613 114.939 130.55 114.595 132.685L114.594 132.685C114.433 133.674 114.3 134.394 114.193 134.775C114.166 134.869 114.134 134.968 114.095 135.051C114.076 135.09 114.042 135.155 113.987 135.216ZM126.285 127.13C126.197 127.172 126.086 127.195 125.965 127.173C125.85 127.152 125.765 127.097 125.712 127.049C125.617 126.966 125.574 126.868 125.558 126.829C125.537 126.778 125.522 126.727 125.512 126.684C125.472 126.522 125.444 126.277 125.423 125.983C125.4 125.678 125.382 125.287 125.368 124.814C125.339 123.866 125.327 122.572 125.331 120.942L125.331 120.933C125.353 119.811 125.388 118.885 125.433 118.167C125.478 117.461 125.536 116.926 125.613 116.602C125.632 116.519 125.657 116.433 125.689 116.356C125.715 116.296 125.775 116.163 125.905 116.066C125.981 116.009 126.092 115.956 126.23 115.956C126.367 115.955 126.476 116.005 126.549 116.056C126.676 116.144 126.743 116.267 126.772 116.327C126.842 116.467 126.897 116.658 126.945 116.863C126.995 117.078 127.045 117.349 127.097 117.672C127.192 118.164 127.214 119.085 127.192 120.129C127.175 120.94 127.131 121.859 127.066 122.774L126.995 123.685L126.917 124.535C126.84 125.317 126.769 125.9 126.703 126.281C126.681 126.408 126.658 126.521 126.634 126.614C126.614 126.695 126.581 126.806 126.527 126.901C126.505 126.938 126.433 127.058 126.285 127.13Z" stroke="black" stroke-opacity="0.11"/>
</svg>
