<svg width="109" height="204" viewBox="0 0 109 204" fill="none" xmlns="http://www.w3.org/2000/svg">
<path d="M14.4516 1.47186C13.3656 2.85299 10.5731 14.3625 2.19571 51.3769C-0.441627 62.8863 -0.674333 68.8712 1.34246 70.989C3.04897 72.8305 6.84984 73.0147 7.31525 71.3573C9.33204 63.715 20.4244 25.5957 20.5795 25.7798C20.6571 25.964 21.1225 32.2251 21.6655 39.8674C22.9842 60.4924 26.0093 87.5626 28.1037 97.4147C32.1373 115.83 39.0409 131.759 47.4959 141.427L50.9089 145.386L48.9697 151.003C45.4015 161.499 45.867 172.18 50.4435 182.861C53.236 189.582 60.5275 197.961 66.1124 201C74.0244 205.327 84.1084 204.959 92.6409 199.987C98.3035 196.672 99.1567 195.383 96.6745 194.002C95.1232 193.173 93.8045 193.358 89.8485 194.923C87.2111 196.028 82.8673 197.225 80.1524 197.501C76.1188 197.961 74.7226 197.685 71.7749 195.936C65.3367 192.253 59.4415 181.204 58.4331 170.983C57.9677 165.735 59.2088 155.883 60.5275 154.962C60.9153 154.594 63.3975 155.422 66.1124 156.711C76.4291 161.591 89.3831 161.776 97.3726 157.264C102.337 154.317 107.224 148.425 106.603 145.939C106.293 144.557 106.293 144.281 106.836 145.202C108 147.136 108.698 144.926 108.93 138.48C109.163 133.969 108.853 132.127 107.379 129.089C104.044 122.275 96.3643 117.671 88.3747 117.671C80.1524 117.671 68.7498 123.38 61.0704 131.391C59.1312 133.508 57.2696 135.166 57.0369 135.166C56.8042 135.166 55.0201 132.403 53.0809 128.905C46.4099 117.027 41.6782 99.5324 38.7306 76.2373C37.2568 63.9912 34.8522 38.5784 34.8522 34.7112C34.8522 33.1459 36.5587 34.7112 42.9969 41.9852C51.9949 52.3897 53.5463 53.6788 57.192 54.5074C60.605 55.244 61.2256 53.1263 58.7434 48.9829C57.6574 47.2335 51.7622 39.4991 45.6342 31.7648C39.5839 24.0304 32.4476 14.7308 29.8878 11.0477C23.1393 1.28771 17.3216 -2.30325 14.4516 1.47186ZM95.6661 127.431C97.3726 129.365 97.2175 135.074 95.3559 138.665C92.0204 145.018 82.1692 149.806 74.2571 148.701C70.3011 148.148 65.8797 145.846 65.8797 144.373C65.8797 142.532 73.016 135.35 77.7477 132.311C82.8673 129.089 90.0036 126.05 92.7961 126.05C93.7269 125.958 95.0456 126.603 95.6661 127.431ZM97.7605 141.887C96.9848 142.716 96.9072 142.624 97.3726 141.335C97.6054 140.414 98.0708 139.954 98.3035 140.23C98.5362 140.506 98.3035 141.243 97.7605 141.887Z" fill="black"/>
</svg>
