<svg width="90" height="112" viewBox="0 0 90 112" fill="none" xmlns="http://www.w3.org/2000/svg">
<path d="M8.34918 60.4735C8.74973 61.1418 10.5178 64.0595 12.2687 66.9324C20.4284 80.4979 35.1521 93.3418 51.8615 101.416C57.7854 104.28 59.111 105.107 57.0383 104.772C55.2682 104.476 48.0482 105.552 46.976 106.323C46.4 106.698 45.7903 107.549 45.62 108.23C45.3018 109.277 45.5476 109.543 47.8602 109.939C56.9851 111.574 83.9878 111.947 84.9904 110.432C85.2639 110.019 85.9482 109.55 86.5759 109.309C87.2035 109.068 87.5853 108.562 87.4477 108.204C87.3102 107.846 87.441 107.436 87.8175 107.291C88.1313 107.171 88.3592 106.827 88.2389 106.513C88.1357 106.245 88.3972 105.425 88.7902 104.76C89.5021 103.614 89.1875 103.169 84.0239 97.0336C80.999 93.4681 76.8868 88.0079 74.9072 84.9145C71.6177 79.9092 66.2194 73.35 65.0201 73.0397C64.1407 72.8121 61.7057 74.723 60.4013 76.765C58.231 80.1156 59.1368 82.8505 65.4305 92.868C66.1456 93.9806 66.5066 94.921 66.2556 95.0174C66.0673 95.0896 63.0455 93.7835 59.5665 92.0363C52.3057 88.504 39.5976 79.9727 34.0874 74.9978C32.001 73.127 30.3153 71.9246 30.4528 72.2828C30.5619 72.7547 30.3565 72.7822 29.7392 72.2998C28.5048 71.3351 28.0863 70.0572 29.2863 70.9324C30.0806 71.5009 30.1434 71.4768 29.4514 70.6121C29.0853 70.0334 28.6219 69.3892 28.536 69.1653C28.4329 68.8966 28.1706 69.1514 27.9943 69.6301C27.6813 70.3154 27.567 70.2052 27.537 69.1891C27.4615 68.2419 27.0325 67.6873 26.1703 67.5045C24.7139 67.0874 24.1019 66.2434 25.358 66.3264C25.8661 66.3369 25.9228 66.1096 25.5283 65.6445C24.3162 64.3629 21.7134 60.5839 19.4417 56.7293C17.1415 52.9883 10.7024 36.9641 10.7628 35.2455C10.7963 34.7702 10.3075 32.1835 9.65868 29.5554C8.2512 23.2625 7.79873 18.1443 8.2585 12.2136C8.74067 5.96594 9.44507 3.48632 10.8938 2.57057C12.1259 1.84074 11.9464 0.0600451 10.6276 0.00113213C9.16607 -0.0543758 6.4629 1.90807 4.50846 4.50789C2.10949 7.638 0.127827 15.2319 0.0118307 22.0582C-0.17574 30.7616 1.86809 43.0269 4.8486 51.5418C6.32166 55.7544 7.93144 59.7604 8.34918 60.4735ZM14.3099 65.1213C14.6865 64.9768 18.3362 70.3576 18.0456 70.7261C17.9544 70.8638 17.1541 70.0921 16.3246 68.8692C14.5685 66.3579 13.9333 65.2659 14.3099 65.1213ZM20.3837 73.0653C28.3316 82.1395 39.8877 91.4213 50.0798 96.9623C54.5475 99.4089 55.2274 99.8672 53.3826 99.1882C48.0422 97.2821 35.3341 88.7508 28.2121 82.3909C24.691 79.2212 19.3392 73.158 18.8407 71.8594C18.7144 71.3428 19.366 71.9147 20.3837 73.0653ZM33.8199 75.6142C34.2712 75.852 34.9572 76.5135 35.4489 77.044C36.1237 77.8639 35.981 77.8673 34.7981 77.037C33.3066 75.9654 32.5115 74.8321 33.8199 75.6142ZM37.1407 78.4497C37.592 78.6875 38.0949 79.0596 38.198 79.3283C38.284 79.5522 37.9358 79.5831 37.4844 79.3453C37.0331 79.1075 36.513 78.6906 36.4271 78.4667C36.324 78.1981 36.6893 78.2119 37.1407 78.4497ZM39.2554 80.2068C39.7067 80.4446 40.2096 80.8167 40.3127 81.0854C40.3987 81.3093 40.0505 81.3402 39.5991 81.1024C39.1478 80.8646 38.6277 80.4478 38.5418 80.2239C38.4387 79.9552 38.804 79.9691 39.2554 80.2068ZM47.5355 86.0194C50.8038 88.1557 55.7916 91.0192 58.5623 92.4218C61.4129 93.845 63.5268 95.0373 63.3385 95.1095C62.2088 95.5432 42.2235 83.9997 41.6279 82.6356C41.5248 82.367 44.2043 83.9072 47.5355 86.0194ZM48.7155 88.906C48.841 88.8578 49.6294 89.2231 50.4864 89.7675C52.3321 91.0114 51.8644 91.2937 49.9559 90.0739C48.3561 89.0953 48.2762 89.0746 48.7155 88.906ZM53.3774 91.4835C55.0796 92.1659 56.5823 93.0791 56.2057 93.2236C55.8919 93.3441 52.2357 91.5108 52.1154 91.1973C52.1266 91.0389 52.6863 91.1837 53.3774 91.4835ZM64.0753 95.3405C64.2008 95.2923 64.8404 95.4578 65.4345 95.6922C66.5254 96.0955 66.4798 96.1643 65.2522 95.9677C64.0245 95.771 63.5732 95.5332 64.0753 95.3405Z" fill="black"/>
</svg>
