<svg width="128" height="199" viewBox="0 0 128 199" fill="none" xmlns="http://www.w3.org/2000/svg">
<path d="M24.0878 7.68394C22.6438 10.783 23.7299 14.602 31.9277 33.504C36.0533 43.1807 41.3223 55.8254 43.6242 61.6478C45.9261 67.4701 48.354 72.7793 48.9504 73.4416C50.0934 74.711 52.9139 74.9696 53.0665 73.8328C53.1123 73.4917 54.1211 72.7832 55.344 72.1819C57.4 71.33 57.5757 70.872 57.6091 65.9451C57.7117 63.0544 57.8487 60.3327 58.1238 59.9851C58.3492 59.5822 58.1618 58.8516 57.6648 58.2997C57.2176 57.8029 56.8964 56.793 56.9879 56.1109C57.4306 52.8142 55.7169 45.163 52.4666 36.1972C51.0517 32.2745 49.9694 28.8517 50.0152 28.5107C50.1374 27.6012 60.3546 35.2909 67.5944 41.7639C89.4131 61.2933 107.52 96.5568 109.456 123.396C110.299 135.828 106.507 151.735 100.394 161.536C90.1513 177.854 64.5172 190.142 39.538 190.747C32.4448 190.838 29.7045 190.407 21.2883 187.592C15.8151 185.824 9.94439 183.615 8.18236 182.703C6.04193 181.632 4.25327 181.344 2.63677 181.9C-0.955476 183.136 -0.894077 184.38 2.9246 187.837C7.04144 191.625 16.5204 195.882 24.2025 197.36C49.1521 202.078 89.3395 188.579 108.349 169.064C124.099 152.984 131.168 127.131 126.378 103.262C124.259 92.6781 117.965 75.7597 113.523 68.8665C112.773 67.6424 111.439 65.246 110.586 63.5153C109.669 61.8431 104.852 55.1872 99.7104 48.8237C92.0801 39.3044 89.2476 36.1585 83.6324 31.6204C72.4174 22.4307 57.4415 12.33 54.6707 12.1266C53.9331 12.0912 53.3559 11.7115 53.4667 11.3119C53.5238 10.461 56.6539 10.5408 78.4728 11.7817C86.4719 12.1745 93.1793 12.8309 93.4278 13.1068C93.6762 13.3828 95.9157 12.8654 98.4952 11.9419C102.577 10.4656 103.081 10.1114 103.409 8.51654C103.596 7.54861 103.998 6.68776 104.342 6.67787C104.685 6.66797 104.303 6.11276 103.428 5.40187C100.106 2.49651 72.7988 -0.398393 53.4376 0.0452541C34.7644 0.469114 26.4142 2.69102 24.0878 7.68394ZM56.9371 69.2484C57.0862 69.414 57.0748 69.9239 56.8341 70.4404C56.6584 70.8984 56.2343 71.0805 55.9858 70.8045C55.6876 70.4734 55.7639 69.905 56.0887 69.6125C56.4785 69.2616 56.8377 69.138 56.9371 69.2484ZM114.348 126.086C114.543 127.609 114.441 130.5 114.101 132.605C113.452 136.587 113.345 135.684 113.527 127.525C113.629 122.936 113.919 122.475 114.348 126.086ZM126.603 117.75C126.775 118.595 126.703 121.258 126.497 123.642C126.07 128.524 125.814 127.455 125.832 120.943C125.919 116.468 126.201 115.214 126.603 117.75Z" fill="black"/>
</svg>
