<svg width="101" height="163" viewBox="0 0 101 163" fill="none" xmlns="http://www.w3.org/2000/svg">
<path d="M66.0306 4.49264C65.6461 6.58426 64.9582 10.547 64.5221 13.377C64.0873 16.1284 62.9419 21.9323 61.9766 26.2743C58.7886 40.5435 57.8565 47.4129 59.151 46.3647C59.9355 45.7295 66.3983 16.6564 66.7036 12.4618C66.8665 9.77564 68.1173 4.58313 68.3321 5.57021C68.5806 6.83957 66.0092 21.2286 64.2142 28.7969C63.2544 32.8249 61.917 38.552 61.2077 41.5258C60.4983 44.4996 59.9514 47.0324 60.065 47.1726C60.4435 47.6401 64.0504 47.0413 64.9133 46.3425C66.247 45.2626 69.6639 35.6069 68.858 35.2533C68.4361 35.0531 68.4767 34.9429 68.8635 34.9393C69.2502 34.9357 69.8441 34.1452 70.1702 33.1845C70.8225 31.263 70.605 30.433 69.9162 32.2291C69.471 33.3636 69.4318 33.3954 69.5687 32.201C69.6973 31.4776 70.1343 30.8141 70.6009 30.6685C71.0661 30.6014 71.1865 30.3491 70.8796 30.2106C70.5334 30.1039 70.6579 29.6161 71.1679 29.2032C71.9551 28.4109 72.1051 28.6764 73.1371 33.8005C77.2693 54.0617 76.635 77.099 71.607 94.8706C65.2647 117.035 54.1295 134.643 38.0808 147.949C32.5486 152.506 31.2583 153.319 26.7397 155.198C19.5323 158.248 15.2222 159.261 7.36084 159.899C0.313648 160.42 -0.812924 160.713 0.44862 161.549C1.28965 162.107 10.3733 162.336 14.9051 161.917C22.1484 161.238 31.2504 158.201 37.9711 154.23C48.1706 148.138 54.6551 142.19 62.8839 131.579C70.086 122.186 75.6397 111.961 79.8672 100.179C81.9403 94.3977 85.2593 81.4931 84.805 80.9322C84.6536 80.7452 84.5346 80.919 84.4128 81.2498C84.1637 82.2255 83.9434 81.5525 84.0817 80.2795C84.1346 79.4626 84.2523 79.3674 84.359 79.9001C84.6468 81.1377 85.3177 80.3622 85.1882 78.9191C85.0911 77.8367 85.0532 77.7899 84.8461 78.5768C84.6838 79.0179 84.5378 78.5169 84.5178 77.4495C84.4991 76.3036 84.5548 75.3297 84.6332 75.2662C84.7509 75.1709 84.8563 75.7822 84.8804 76.6141C84.9046 77.4459 85.0884 77.9937 85.3237 77.8031C85.7944 77.422 85.7639 74.7376 85.2622 74.6795C85.0702 74.6028 84.9827 72.9708 85.0562 70.9763L85.2342 67.4265L85.2482 71.053C85.3289 73.0775 85.5354 74.5356 85.81 74.3133C86.6337 73.6462 86.679 53.3305 85.8368 46.195C85.4388 42.4151 85.1447 39.325 85.261 39.3082C85.3759 39.37 86.0532 40.4469 86.8427 41.7427C88.6433 44.9286 92.5423 49.7435 94.1094 50.7965C95.0275 51.3689 95.9931 51.4384 96.929 50.9901C97.7473 50.6371 98.7548 50.5179 99.1753 50.7965C100.475 51.6793 101.428 50.2104 100.528 48.6174C98.3545 44.6499 97.0839 42.1184 96.5339 40.3966C95.246 36.6406 91.7205 30.3622 86.4077 22.3577C86.0305 21.8117 85.433 20.5927 85.1398 19.6691C84.8073 18.7773 83.7976 16.8086 82.8959 15.2941C81.9943 13.7796 80.2356 10.4049 78.9691 7.63782C76.92 3.18249 76.505 2.58976 74.8973 1.64704C72.9069 0.472384 68.205 -0.441565 67.3813 0.225481C67.0675 0.479594 66.4923 2.41599 66.0306 4.49264ZM70.6891 23.3988C70.8027 23.539 70.8351 23.8998 70.7133 24.2306C70.6307 24.5297 70.3589 24.595 70.1696 24.3613C69.9425 24.0808 69.9493 23.6882 70.1454 23.5294C70.3808 23.3388 70.6134 23.3053 70.6891 23.3988ZM78.184 74.761C77.9249 78.5313 76.289 88.0605 75.3498 90.9109C74.7395 92.6435 75.0931 90.1126 76.103 85.4247C76.6134 82.7667 77.3096 78.333 77.5509 75.5833C78.2015 69.3288 78.5587 68.8074 78.184 74.761ZM83.9931 83.1377C84.0214 83.734 83.8941 84.3789 83.6587 84.5694C83.4234 84.76 83.3153 84.3057 83.444 83.5824C83.7053 81.9001 83.9015 81.7413 83.9931 83.1377Z" fill="black"/>
</svg>
